<svg width="1625" height="254" viewBox="0 0 1625 254" fill="none" xmlns="http://www.w3.org/2000/svg">
<g filter="url(#filter0_d_199_15676)">
<path fill-rule="evenodd" clip-rule="evenodd" d="M337.56 43.1761C333.928 41.0949 329.814 40 325.628 40H58C44.7452 40 34 50.7452 34 64V201.683C34 214.938 44.7452 225.683 58 225.683H1566.61C1579.86 225.683 1590.61 214.938 1590.61 201.683V64C1590.61 50.7452 1579.86 40 1566.61 40H737.372C733.186 40 729.072 41.0949 725.44 43.1761L694.871 60.6916C691.088 62.8594 686.803 64 682.442 64H380.558C376.197 64 371.912 62.8594 368.129 60.6916L337.56 43.1761Z" fill="url(#paint0_linear_199_15676)"/>
</g>
<defs>
<filter id="filter0_d_199_15676" x="0" y="0" width="1624.61" height="253.684" filterUnits="userSpaceOnUse" color-interpolation-filters="sRGB">
<feFlood flood-opacity="0" result="BackgroundImageFix"/>
<feColorMatrix in="SourceAlpha" type="matrix" values="0 0 0 0 0 0 0 0 0 0 0 0 0 0 0 0 0 0 127 0" result="hardAlpha"/>
<feOffset dy="-6"/>
<feGaussianBlur stdDeviation="17"/>
<feComposite in2="hardAlpha" operator="out"/>
<feColorMatrix type="matrix" values="0 0 0 0 0.447059 0 0 0 0 0.490196 0 0 0 0 0.529412 0 0 0 0.1 0"/>
<feBlend mode="normal" in2="BackgroundImageFix" result="effect1_dropShadow_199_15676"/>
<feBlend mode="normal" in="SourceGraphic" in2="effect1_dropShadow_199_15676" result="shape"/>
</filter>
<linearGradient id="paint0_linear_199_15676" x1="-128.371" y1="-20.5487" x2="1829.86" y2="677.739" gradientUnits="userSpaceOnUse">
<stop stop-color="#EBE4FF"/>
<stop offset="1" stop-color="#B0D0FF"/>
</linearGradient>
</defs>
</svg>
