<svg width="1557" height="186" viewBox="0 0 1557 186" fill="none" xmlns="http://www.w3.org/2000/svg">
<path fill-rule="evenodd" clip-rule="evenodd" d="M305.312 3.13884C301.696 1.08165 297.607 0 293.446 0H24C10.7452 0 0 10.7451 0 24V161.68C0 174.935 10.7452 185.68 24 185.68H1532.61C1545.86 185.68 1556.61 174.935 1556.61 161.68V24C1556.61 10.7452 1545.86 0 1532.61 0H674.554C670.393 0 666.304 1.08165 662.688 3.13883L628.496 22.5881C625.454 24.3184 622.014 25.2283 618.515 25.2283H349.485C345.986 25.2283 342.546 24.3184 339.504 22.5881L305.312 3.13884Z" fill="url(#paint0_linear_823_307)"/>
<path d="M1008.04 122.41C1008.04 122.863 1007.98 123.303 1007.84 123.73C1007.71 124.158 1007.53 124.569 1007.29 124.965C1007.05 125.361 1006.77 125.736 1006.44 126.09C1006.12 126.449 1005.77 126.788 1005.38 127.105C1005 127.423 1004.6 127.715 1004.17 127.98C1003.75 128.251 1003.32 128.496 1002.88 128.715L1002.21 127.332C1002.58 127.139 1002.96 126.928 1003.33 126.699C1003.69 126.47 1004.04 126.223 1004.37 125.957C1004.7 125.691 1005 125.41 1005.28 125.113C1005.55 124.816 1005.79 124.507 1005.97 124.184C1006.17 123.861 1006.31 123.525 1006.4 123.176C1006.5 122.832 1006.53 122.475 1006.49 122.105V122.121C1006.45 121.824 1006.4 121.507 1006.32 121.168C1006.24 120.824 1006.16 120.488 1006.07 120.16C1005.98 119.832 1005.89 119.525 1005.8 119.238C1005.72 118.947 1005.65 118.704 1005.58 118.512L1007.05 118.059C1007.25 118.663 1007.44 119.178 1007.63 119.605C1007.82 120.027 1008.02 120.374 1008.22 120.645C1008.42 120.91 1008.63 121.105 1008.85 121.23C1009.07 121.355 1009.31 121.418 1009.57 121.418H1009.61C1009.72 121.418 1009.82 121.439 1009.91 121.48C1010 121.522 1010.09 121.579 1010.15 121.652C1010.23 121.72 1010.28 121.801 1010.32 121.895C1010.36 121.988 1010.38 122.087 1010.38 122.191C1010.38 122.41 1010.3 122.592 1010.15 122.738C1010.01 122.879 1009.83 122.949 1009.61 122.949H1009.6C1009.53 122.949 1009.43 122.947 1009.31 122.941C1009.19 122.936 1009.06 122.915 1008.92 122.879C1008.78 122.842 1008.63 122.785 1008.48 122.707C1008.33 122.629 1008.18 122.52 1008.04 122.379V122.41ZM1013.54 117.441C1013.39 117.457 1013.24 117.535 1013.1 117.676C1012.95 117.811 1012.81 117.988 1012.68 118.207C1012.56 118.421 1012.44 118.663 1012.34 118.934C1012.24 119.204 1012.15 119.48 1012.08 119.762C1012.02 120.043 1011.97 120.322 1011.93 120.598C1011.91 120.868 1011.91 121.111 1011.94 121.324C1012.29 121.366 1012.6 121.324 1012.87 121.199C1013.15 121.069 1013.38 120.889 1013.58 120.66C1013.78 120.426 1013.93 120.16 1014.04 119.863C1014.15 119.566 1014.2 119.267 1014.2 118.965C1014.21 118.663 1014.15 118.376 1014.04 118.105C1013.94 117.835 1013.77 117.613 1013.54 117.441ZM1008.76 122.184C1008.76 121.97 1008.84 121.79 1008.98 121.645C1009.13 121.493 1009.31 121.418 1009.53 121.418H1010.4C1010.39 121.116 1010.4 120.77 1010.45 120.379C1010.5 119.988 1010.59 119.587 1010.7 119.176C1010.81 118.764 1010.96 118.363 1011.13 117.973C1011.31 117.577 1011.51 117.223 1011.75 116.91C1011.99 116.592 1012.25 116.335 1012.55 116.137C1012.85 115.934 1013.17 115.824 1013.53 115.809C1013.83 115.793 1014.1 115.868 1014.34 116.035C1014.59 116.202 1014.8 116.423 1014.97 116.699C1015.15 116.97 1015.29 117.28 1015.4 117.629C1015.51 117.973 1015.59 118.322 1015.63 118.676C1015.67 119.025 1015.67 119.361 1015.64 119.684C1015.61 120.001 1015.54 120.267 1015.43 120.48C1015.31 120.824 1015.15 121.129 1014.93 121.395C1014.73 121.66 1014.48 121.889 1014.21 122.082C1013.93 122.275 1013.63 122.434 1013.3 122.559C1012.98 122.684 1012.64 122.775 1012.29 122.832C1012.36 122.983 1012.44 123.168 1012.54 123.387C1012.64 123.605 1012.76 123.824 1012.89 124.043C1013.02 124.262 1013.16 124.465 1013.31 124.652C1013.47 124.845 1013.63 124.991 1013.79 125.09C1013.77 124.762 1013.8 124.441 1013.88 124.129C1013.96 123.822 1014.09 123.533 1014.25 123.262C1014.42 122.991 1014.62 122.743 1014.86 122.52C1015.09 122.29 1015.35 122.095 1015.62 121.934C1015.9 121.772 1016.18 121.647 1016.48 121.559C1016.78 121.465 1017.09 121.418 1017.39 121.418C1017.61 121.418 1017.79 121.493 1017.93 121.645C1018.09 121.79 1018.16 121.97 1018.16 122.184C1018.16 122.402 1018.09 122.585 1017.93 122.73C1017.79 122.876 1017.61 122.949 1017.39 122.949H1017.33C1017.04 122.96 1016.77 123.033 1016.5 123.168C1016.25 123.303 1016.02 123.478 1015.82 123.691C1015.62 123.905 1015.46 124.147 1015.33 124.418C1015.21 124.689 1015.13 124.967 1015.11 125.254C1015.09 125.546 1015.13 125.832 1015.23 126.113C1015.33 126.4 1015.5 126.663 1015.75 126.902L1014.77 128.09C1014.22 127.757 1013.73 127.392 1013.29 126.996C1012.86 126.6 1012.48 126.189 1012.15 125.762C1011.83 125.335 1011.55 124.9 1011.32 124.457C1011.09 124.014 1010.9 123.577 1010.76 123.145L1010.69 122.949H1009.53C1009.31 122.949 1009.13 122.876 1008.98 122.73C1008.84 122.585 1008.76 122.402 1008.76 122.184ZM1016.68 122.191C1016.68 122.092 1016.69 121.999 1016.73 121.91C1016.77 121.816 1016.82 121.736 1016.89 121.668C1016.95 121.595 1017.03 121.538 1017.11 121.496C1017.2 121.454 1017.3 121.428 1017.4 121.418C1017.7 121.418 1017.98 121.358 1018.22 121.238C1018.47 121.118 1018.69 120.96 1018.88 120.762C1019.07 120.559 1019.24 120.327 1019.39 120.066C1019.53 119.806 1019.66 119.535 1019.76 119.254C1019.87 118.967 1019.95 118.681 1020.02 118.395C1020.09 118.103 1020.16 117.829 1020.21 117.574L1021.75 117.902C1021.71 118.027 1021.66 118.189 1021.6 118.387C1021.54 118.585 1021.48 118.798 1021.43 119.027C1021.37 119.251 1021.32 119.483 1021.28 119.723C1021.24 119.957 1021.22 120.176 1021.22 120.379C1021.22 120.52 1021.23 120.658 1021.25 120.793C1021.28 120.923 1021.33 121.04 1021.39 121.145C1021.45 121.249 1021.54 121.332 1021.65 121.395C1021.75 121.457 1021.89 121.488 1022.06 121.488C1022.33 121.488 1022.56 121.415 1022.77 121.27C1022.98 121.124 1023.17 120.934 1023.33 120.699C1023.5 120.465 1023.64 120.199 1023.76 119.902C1023.88 119.605 1023.98 119.303 1024.07 118.996C1024.16 118.689 1024.23 118.392 1024.29 118.105C1024.34 117.814 1024.39 117.561 1024.42 117.348L1025.92 117.621C1025.92 117.621 1025.9 117.707 1025.87 117.879C1025.85 118.046 1025.81 118.251 1025.77 118.496C1025.73 118.736 1025.7 118.993 1025.67 119.27C1025.64 119.54 1025.62 119.783 1025.62 119.996C1025.62 120.189 1025.63 120.374 1025.66 120.551C1025.69 120.723 1025.74 120.876 1025.8 121.012C1025.87 121.142 1025.96 121.251 1026.06 121.34C1026.17 121.423 1026.3 121.473 1026.46 121.488C1026.7 121.52 1026.9 121.517 1027.05 121.48C1027.21 121.444 1027.34 121.397 1027.43 121.34C1027.53 121.277 1027.6 121.212 1027.64 121.145C1027.68 121.077 1027.72 121.027 1027.73 120.996H1027.72C1027.8 120.882 1027.85 120.751 1027.87 120.605C1027.9 120.46 1027.92 120.303 1027.92 120.137C1027.92 119.84 1027.88 119.52 1027.79 119.176C1027.72 118.832 1027.62 118.496 1027.5 118.168C1027.4 117.835 1027.28 117.527 1027.15 117.246C1027.03 116.96 1026.93 116.733 1026.85 116.566L1028.22 115.848C1028.24 115.9 1028.29 116.001 1028.36 116.152C1028.44 116.298 1028.52 116.48 1028.61 116.699C1028.71 116.913 1028.8 117.155 1028.9 117.426C1029.01 117.697 1029.1 117.983 1029.18 118.285C1029.27 118.582 1029.34 118.887 1029.39 119.199C1029.44 119.512 1029.47 119.816 1029.47 120.113C1029.47 120.561 1029.41 120.967 1029.29 121.332C1029.16 121.691 1028.97 121.999 1028.72 122.254C1028.47 122.509 1028.16 122.707 1027.78 122.848C1027.4 122.983 1026.96 123.048 1026.46 123.043C1026.25 123.043 1026.05 123.012 1025.86 122.949C1025.66 122.887 1025.47 122.803 1025.29 122.699C1025.1 122.59 1024.93 122.465 1024.78 122.324C1024.62 122.178 1024.49 122.022 1024.38 121.855C1024.07 122.22 1023.71 122.509 1023.32 122.723C1022.92 122.936 1022.5 123.043 1022.06 123.043C1021.87 123.043 1021.67 123.017 1021.46 122.965C1021.25 122.918 1021.06 122.845 1020.87 122.746C1020.68 122.647 1020.51 122.525 1020.36 122.379C1020.21 122.233 1020.09 122.064 1020 121.871C1019.69 122.199 1019.34 122.46 1018.94 122.652C1018.55 122.845 1018.07 122.947 1017.52 122.957H1017.4C1017.3 122.952 1017.2 122.928 1017.11 122.887C1017.03 122.845 1016.95 122.79 1016.89 122.723C1016.82 122.655 1016.77 122.577 1016.73 122.488C1016.69 122.395 1016.68 122.296 1016.68 122.191ZM1025.01 113.66L1026.28 112.395L1027.56 113.676L1026.29 114.941L1025.01 113.66ZM1021.58 113.652L1022.85 112.379L1024.13 113.66L1022.86 114.934L1021.58 113.652ZM1023.47 111.301L1024.62 110.145L1025.79 111.309L1024.63 112.465L1023.47 111.301ZM1031.05 126.926C1031.85 126.764 1032.57 126.54 1033.21 126.254C1033.84 125.967 1034.39 125.645 1034.84 125.285C1035.29 124.926 1035.65 124.543 1035.91 124.137C1036.18 123.736 1036.34 123.34 1036.4 122.949C1036.18 122.954 1035.92 122.954 1035.61 122.949C1035.32 122.949 1035.03 122.936 1034.74 122.91C1033.61 122.837 1032.77 122.467 1032.23 121.801C1031.99 121.499 1031.84 121.15 1031.77 120.754C1031.71 120.358 1031.71 119.954 1031.76 119.543C1031.83 119.126 1031.94 118.725 1032.1 118.34C1032.26 117.949 1032.45 117.613 1032.67 117.332C1032.93 117.004 1033.22 116.757 1033.53 116.59C1033.84 116.418 1034.16 116.332 1034.5 116.332C1035.24 116.332 1035.92 116.665 1036.54 117.332C1036.75 117.577 1036.95 117.853 1037.13 118.16C1037.31 118.467 1037.46 118.798 1037.58 119.152C1037.71 119.501 1037.81 119.868 1037.88 120.254C1037.95 120.634 1037.99 121.022 1038 121.418H1038.59C1038.7 121.418 1038.8 121.439 1038.9 121.48C1038.99 121.517 1039.07 121.572 1039.14 121.645C1039.21 121.712 1039.27 121.793 1039.31 121.887C1039.35 121.98 1039.37 122.082 1039.37 122.191C1039.37 122.296 1039.35 122.395 1039.31 122.488C1039.27 122.577 1039.21 122.658 1039.14 122.73C1039.07 122.798 1038.99 122.853 1038.9 122.895C1038.8 122.931 1038.7 122.949 1038.59 122.949H1037.89C1037.73 123.72 1037.45 124.415 1037.04 125.035C1036.63 125.66 1036.13 126.204 1035.55 126.668C1034.97 127.132 1034.33 127.512 1033.61 127.809C1032.9 128.105 1032.17 128.314 1031.41 128.434L1031.05 126.926ZM1034.5 117.871C1034.35 117.871 1034.2 117.931 1034.07 118.051C1033.93 118.165 1033.81 118.314 1033.7 118.496C1033.6 118.678 1033.51 118.884 1033.43 119.113C1033.36 119.337 1033.31 119.561 1033.28 119.785C1033.25 120.004 1033.25 120.21 1033.28 120.402C1033.3 120.59 1033.36 120.738 1033.45 120.848C1033.53 120.952 1033.63 121.038 1033.75 121.105C1033.87 121.168 1033.99 121.22 1034.12 121.262C1034.25 121.298 1034.38 121.327 1034.5 121.348C1034.63 121.363 1034.75 121.374 1034.84 121.379C1035.17 121.4 1035.47 121.408 1035.74 121.402C1036.02 121.397 1036.25 121.387 1036.46 121.371C1036.44 121.043 1036.4 120.73 1036.34 120.434C1036.28 120.132 1036.2 119.853 1036.1 119.598C1036 119.342 1035.9 119.113 1035.77 118.91C1035.65 118.702 1035.52 118.522 1035.39 118.371C1035.34 118.319 1035.28 118.264 1035.21 118.207C1035.15 118.145 1035.08 118.09 1035 118.043C1034.92 117.991 1034.84 117.949 1034.75 117.918C1034.67 117.887 1034.59 117.871 1034.5 117.871ZM1037.78 122.184C1037.78 121.965 1037.85 121.783 1038 121.637C1038.15 121.491 1038.33 121.418 1038.54 121.418H1039.35C1039.62 121.428 1039.89 121.428 1040.15 121.418C1040.4 121.402 1040.63 121.363 1040.85 121.301C1041.06 121.238 1041.25 121.145 1041.41 121.02C1041.58 120.889 1041.71 120.715 1041.82 120.496C1041.92 120.272 1041.95 119.954 1041.9 119.543C1041.86 119.126 1041.76 118.642 1041.59 118.09C1041.53 117.923 1041.47 117.743 1041.39 117.551C1041.31 117.353 1041.24 117.171 1041.17 117.004C1041.09 116.806 1041 116.611 1040.91 116.418L1042.3 115.73C1042.3 115.736 1042.33 115.79 1042.37 115.895C1042.42 115.993 1042.49 116.129 1042.56 116.301C1042.63 116.473 1042.71 116.673 1042.8 116.902C1042.89 117.126 1042.97 117.366 1043.05 117.621C1043.54 119.116 1043.6 120.283 1043.23 121.121C1042.86 121.96 1042.21 122.512 1041.26 122.777C1040.98 122.861 1040.71 122.91 1040.43 122.926C1040.17 122.941 1039.92 122.949 1039.68 122.949H1038.61H1038.54C1038.33 122.949 1038.15 122.876 1038 122.73C1037.85 122.585 1037.78 122.402 1037.78 122.184ZM1042.17 125.887L1040.9 127.16L1039.61 125.879L1040.89 124.605L1042.17 125.887ZM1061.14 116.059C1061.5 115.986 1061.84 115.96 1062.17 115.98C1062.5 116.001 1062.79 116.04 1063.04 116.098C1063.29 116.155 1063.49 116.215 1063.64 116.277C1063.79 116.34 1063.88 116.374 1063.9 116.379L1063.22 117.809C1063.22 117.809 1063.17 117.79 1063.07 117.754C1062.97 117.712 1062.84 117.676 1062.68 117.645C1062.52 117.608 1062.34 117.585 1062.12 117.574C1061.91 117.559 1061.69 117.574 1061.47 117.621C1061.25 117.642 1061.02 117.71 1060.78 117.824C1060.54 117.939 1060.32 118.087 1060.1 118.27C1059.88 118.452 1059.68 118.66 1059.49 118.895C1059.3 119.124 1059.15 119.363 1059.02 119.613C1058.9 119.863 1058.82 120.116 1058.78 120.371C1058.74 120.626 1058.75 120.866 1058.83 121.09C1058.9 121.283 1059.02 121.436 1059.18 121.551C1059.36 121.665 1059.56 121.762 1059.79 121.84C1060.02 121.918 1060.26 121.986 1060.53 122.043C1060.8 122.1 1061.06 122.168 1061.33 122.246C1061.59 122.319 1061.83 122.41 1062.07 122.52C1062.3 122.629 1062.5 122.775 1062.66 122.957C1062.83 123.145 1062.94 123.374 1063.01 123.645C1063.09 123.921 1063.09 124.259 1063.02 124.66C1062.93 125.171 1062.7 125.639 1062.33 126.066C1061.97 126.493 1061.48 126.858 1060.88 127.16C1060.31 127.452 1059.66 127.673 1058.93 127.824C1058.2 127.975 1057.41 128.051 1056.56 128.051C1055.58 128.051 1054.7 127.908 1053.94 127.621C1053.19 127.34 1052.57 126.928 1052.08 126.387C1051.66 125.897 1051.35 125.329 1051.18 124.684C1051 124.038 1050.97 123.332 1051.06 122.566C1051.1 122.228 1051.16 121.879 1051.23 121.52C1051.3 121.155 1051.38 120.801 1051.47 120.457C1051.55 120.113 1051.64 119.788 1051.73 119.48C1051.83 119.168 1051.91 118.892 1051.98 118.652C1052.06 118.413 1052.12 118.22 1052.17 118.074C1052.22 117.928 1052.25 117.845 1052.26 117.824L1053.75 118.348C1053.52 119.077 1053.3 119.803 1053.1 120.527C1052.9 121.251 1052.74 121.993 1052.65 122.754C1052.62 122.941 1052.6 123.145 1052.6 123.363C1052.6 123.582 1052.62 123.803 1052.66 124.027C1052.71 124.257 1052.78 124.48 1052.87 124.699C1052.97 124.923 1053.11 125.132 1053.28 125.324C1053.61 125.699 1054.05 125.98 1054.6 126.168C1055.16 126.355 1055.81 126.449 1056.56 126.449C1057.3 126.449 1057.97 126.389 1058.56 126.27C1059.15 126.155 1059.66 125.999 1060.08 125.801C1060.5 125.608 1060.83 125.387 1061.06 125.137C1061.29 124.892 1061.42 124.637 1061.45 124.371C1061.46 124.246 1061.42 124.142 1061.32 124.059C1061.22 123.975 1061.08 123.902 1060.91 123.84C1060.74 123.777 1060.54 123.72 1060.31 123.668C1060.09 123.616 1059.85 123.553 1059.6 123.48C1059.35 123.413 1059.11 123.329 1058.86 123.23C1058.62 123.137 1058.39 123.02 1058.18 122.879C1057.98 122.733 1057.79 122.559 1057.64 122.355C1057.49 122.147 1057.38 121.897 1057.33 121.605C1057.24 121.194 1057.22 120.785 1057.26 120.379C1057.31 119.967 1057.41 119.572 1057.55 119.191C1057.7 118.806 1057.89 118.444 1058.13 118.105C1058.37 117.762 1058.64 117.454 1058.95 117.184C1059.26 116.908 1059.6 116.673 1059.97 116.48C1060.34 116.288 1060.73 116.147 1061.14 116.059ZM1069.05 122.949C1068.48 122.949 1067.99 122.882 1067.58 122.746C1067.17 122.611 1066.83 122.402 1066.54 122.121C1066.37 121.949 1066.24 121.764 1066.15 121.566C1066.06 121.368 1065.99 121.173 1065.94 120.98C1065.9 120.788 1065.88 120.605 1065.87 120.434C1065.87 120.257 1065.86 120.105 1065.86 119.98V119.832C1065.86 119.827 1065.87 119.733 1065.87 119.551C1065.88 119.363 1065.88 119.113 1065.88 118.801C1065.88 118.483 1065.89 118.118 1065.89 117.707C1065.89 117.296 1065.88 116.861 1065.88 116.402C1065.88 115.954 1065.87 115.488 1065.86 115.004C1065.85 114.52 1065.84 114.051 1065.82 113.598C1065.8 113.145 1065.77 112.728 1065.73 112.348C1065.69 111.962 1065.65 111.647 1065.61 111.402L1067.14 111.121C1067.18 111.387 1067.23 111.712 1067.26 112.098C1067.3 112.483 1067.33 112.902 1067.35 113.355C1067.37 113.809 1067.39 114.283 1067.4 114.777C1067.41 115.267 1067.42 115.746 1067.42 116.215C1067.42 116.673 1067.43 117.113 1067.43 117.535C1067.43 117.957 1067.43 118.332 1067.43 118.66C1067.43 118.988 1067.42 119.259 1067.42 119.473C1067.42 119.686 1067.42 119.814 1067.42 119.855V119.996C1067.41 120.225 1067.42 120.428 1067.44 120.605C1067.46 120.777 1067.53 120.921 1067.65 121.035C1067.89 121.28 1068.33 121.405 1068.98 121.41H1069.05C1069.16 121.41 1069.25 121.431 1069.35 121.473C1069.44 121.514 1069.52 121.572 1069.59 121.645C1069.66 121.712 1069.72 121.793 1069.76 121.887C1069.8 121.98 1069.83 122.079 1069.83 122.184C1069.83 122.402 1069.75 122.585 1069.6 122.73C1069.45 122.876 1069.27 122.949 1069.05 122.949ZM1068.22 122.176C1068.22 122.072 1068.24 121.975 1068.29 121.887C1068.33 121.793 1068.38 121.712 1068.46 121.645C1068.53 121.572 1068.62 121.517 1068.72 121.48C1068.81 121.439 1068.91 121.418 1069.02 121.418H1069.09C1069.4 121.418 1069.68 121.415 1069.91 121.41C1070.15 121.405 1070.37 121.397 1070.56 121.387C1070.75 121.376 1070.93 121.363 1071.08 121.348C1071.24 121.332 1071.4 121.314 1071.55 121.293C1071.16 120.871 1070.87 120.457 1070.67 120.051C1070.48 119.639 1070.38 119.243 1070.38 118.863C1070.38 118.603 1070.41 118.329 1070.48 118.043C1070.55 117.751 1070.66 117.473 1070.81 117.207C1070.96 116.936 1071.15 116.686 1071.37 116.457C1071.6 116.223 1071.86 116.03 1072.18 115.879L1071.56 115.637L1072.3 114.23L1075.02 115.348C1075.5 115.561 1075.97 115.775 1076.42 115.988C1076.87 116.202 1077.29 116.415 1077.67 116.629C1078.05 116.842 1078.39 117.059 1078.68 117.277C1078.98 117.496 1079.2 117.715 1079.36 117.934C1079.84 118.595 1080.08 119.272 1080.08 119.965C1080.08 120.475 1079.95 120.954 1079.68 121.402C1079.41 121.845 1079 122.212 1078.45 122.504L1078.46 122.496C1078.31 122.585 1078.14 122.66 1077.94 122.723C1077.74 122.78 1077.54 122.827 1077.32 122.863C1077.1 122.9 1076.89 122.928 1076.67 122.949C1076.45 122.965 1076.25 122.973 1076.07 122.973C1075.61 122.973 1075.16 122.939 1074.73 122.871C1074.3 122.803 1073.87 122.681 1073.43 122.504C1073.15 122.587 1072.84 122.658 1072.49 122.715C1072.15 122.772 1071.78 122.819 1071.4 122.855C1071.02 122.887 1070.63 122.91 1070.24 122.926C1069.84 122.941 1069.46 122.949 1069.09 122.949H1069.02C1068.91 122.949 1068.81 122.931 1068.72 122.895C1068.62 122.853 1068.53 122.798 1068.46 122.73C1068.38 122.658 1068.33 122.574 1068.29 122.48C1068.24 122.387 1068.22 122.285 1068.22 122.176ZM1076.5 118.488C1076.5 118.707 1076.47 118.944 1076.41 119.199C1076.35 119.454 1076.26 119.712 1076.15 119.973C1076.04 120.228 1075.9 120.48 1075.74 120.73C1075.58 120.98 1075.4 121.21 1075.2 121.418C1075.37 121.444 1075.5 121.46 1075.61 121.465C1075.72 121.47 1075.83 121.473 1075.92 121.473H1076.29C1076.69 121.473 1077.03 121.431 1077.33 121.348C1077.62 121.259 1077.86 121.142 1078.05 120.996C1078.24 120.85 1078.39 120.681 1078.48 120.488C1078.58 120.29 1078.62 120.085 1078.62 119.871C1078.62 119.689 1078.58 119.491 1078.48 119.277C1078.39 119.064 1078.25 118.85 1078.06 118.637C1077.88 118.418 1077.65 118.204 1077.37 117.996C1077.1 117.788 1076.77 117.598 1076.4 117.426C1076.46 117.624 1076.49 117.811 1076.5 117.988C1076.5 118.165 1076.5 118.332 1076.5 118.488ZM1074.9 118.426C1074.9 118.27 1074.89 118.105 1074.86 117.934C1074.84 117.757 1074.79 117.59 1074.72 117.434C1074.64 117.272 1074.54 117.132 1074.4 117.012C1074.26 116.887 1074.08 116.801 1073.86 116.754C1073.57 116.697 1073.31 116.725 1073.07 116.84C1072.83 116.949 1072.62 117.105 1072.44 117.309C1072.27 117.512 1072.13 117.741 1072.04 117.996C1071.94 118.251 1071.89 118.496 1071.89 118.73C1071.89 118.949 1071.93 119.158 1072 119.355C1072.08 119.553 1072.19 119.741 1072.32 119.918C1072.45 120.09 1072.61 120.254 1072.79 120.41C1072.96 120.561 1073.15 120.702 1073.35 120.832C1073.61 120.712 1073.84 120.561 1074.04 120.379C1074.23 120.197 1074.4 119.999 1074.52 119.785C1074.65 119.566 1074.75 119.34 1074.81 119.105C1074.87 118.871 1074.9 118.645 1074.9 118.426ZM1092.75 128.324C1091.37 128.324 1090.24 127.934 1089.36 127.152C1088.95 126.793 1088.62 126.371 1088.36 125.887C1088.11 125.402 1087.95 124.871 1087.86 124.293C1087.81 123.975 1087.79 123.655 1087.79 123.332C1087.8 123.014 1087.82 122.707 1087.86 122.41C1087.89 122.113 1087.94 121.835 1088 121.574C1088.07 121.309 1088.13 121.072 1088.19 120.863C1088.35 120.332 1088.53 119.879 1088.72 119.504C1088.91 119.124 1089.07 118.842 1089.19 118.66L1090.43 119.574C1090.37 119.668 1090.29 119.803 1090.2 119.98C1090.11 120.152 1090.02 120.355 1089.93 120.59C1089.84 120.819 1089.75 121.074 1089.67 121.355C1089.59 121.637 1089.52 121.931 1089.46 122.238C1089.41 122.54 1089.37 122.848 1089.36 123.16C1089.34 123.473 1089.35 123.777 1089.4 124.074C1089.42 124.21 1089.46 124.368 1089.52 124.551C1089.58 124.733 1089.67 124.921 1089.79 125.113C1089.91 125.306 1090.05 125.496 1090.23 125.684C1090.41 125.876 1090.63 126.048 1090.89 126.199C1091.15 126.355 1091.45 126.483 1091.79 126.582C1092.13 126.686 1092.53 126.749 1092.97 126.77C1093 126.77 1093.01 126.77 1093 126.77C1093 126.775 1092.99 126.777 1092.98 126.777C1092.97 126.777 1092.96 126.777 1092.96 126.777C1092.95 126.777 1092.96 126.775 1092.99 126.77C1094.09 126.723 1094.98 126.504 1095.66 126.113C1096.34 125.723 1096.8 125.165 1097.04 124.441C1097.17 123.993 1097.24 123.543 1097.25 123.09C1097.26 122.637 1097.23 122.202 1097.15 121.785C1097.09 121.368 1096.99 120.98 1096.86 120.621C1096.74 120.257 1096.62 119.941 1096.5 119.676C1096.38 119.405 1096.28 119.194 1096.19 119.043C1096.1 118.887 1096.06 118.809 1096.05 118.809L1097.35 117.98C1097.36 118.007 1097.43 118.116 1097.54 118.309C1097.66 118.501 1097.79 118.762 1097.93 119.09C1098.08 119.413 1098.23 119.793 1098.37 120.23C1098.52 120.663 1098.63 121.132 1098.71 121.637C1098.79 122.142 1098.81 122.673 1098.79 123.23C1098.78 123.788 1098.68 124.348 1098.5 124.91C1098.35 125.4 1098.12 125.84 1097.83 126.23C1097.53 126.626 1097.16 126.967 1096.72 127.254C1096.25 127.582 1095.71 127.832 1095.1 128.004C1094.49 128.176 1093.81 128.28 1093.05 128.316C1093 128.316 1092.95 128.316 1092.9 128.316C1092.84 128.322 1092.79 128.324 1092.75 128.324ZM1094.63 117.941L1093.36 119.215L1092.08 117.934L1093.35 116.66L1094.63 117.941ZM1104.38 122.949C1103.81 122.949 1103.31 122.882 1102.9 122.746C1102.5 122.611 1102.15 122.402 1101.87 122.121C1101.7 121.949 1101.57 121.764 1101.47 121.566C1101.38 121.368 1101.32 121.173 1101.27 120.98C1101.23 120.788 1101.21 120.605 1101.2 120.434C1101.19 120.257 1101.19 120.105 1101.19 119.98V119.832C1101.19 119.827 1101.19 119.733 1101.2 119.551C1101.21 119.363 1101.21 119.113 1101.21 118.801C1101.21 118.483 1101.22 118.118 1101.22 117.707C1101.22 117.296 1101.21 116.861 1101.21 116.402C1101.21 115.954 1101.2 115.488 1101.19 115.004C1101.18 114.52 1101.17 114.051 1101.15 113.598C1101.12 113.145 1101.1 112.728 1101.06 112.348C1101.02 111.962 1100.98 111.647 1100.93 111.402L1102.47 111.121C1102.51 111.387 1102.55 111.712 1102.59 112.098C1102.63 112.483 1102.66 112.902 1102.68 113.355C1102.7 113.809 1102.72 114.283 1102.73 114.777C1102.74 115.267 1102.75 115.746 1102.75 116.215C1102.75 116.673 1102.75 117.113 1102.75 117.535C1102.75 117.957 1102.75 118.332 1102.75 118.66C1102.75 118.988 1102.75 119.259 1102.75 119.473C1102.75 119.686 1102.75 119.814 1102.75 119.855V119.996C1102.74 120.225 1102.75 120.428 1102.77 120.605C1102.79 120.777 1102.86 120.921 1102.98 121.035C1103.22 121.28 1103.66 121.405 1104.31 121.41H1104.38C1104.48 121.41 1104.58 121.431 1104.68 121.473C1104.77 121.514 1104.85 121.572 1104.92 121.645C1104.99 121.712 1105.05 121.793 1105.09 121.887C1105.13 121.98 1105.15 122.079 1105.15 122.184C1105.15 122.402 1105.08 122.585 1104.93 122.73C1104.78 122.876 1104.59 122.949 1104.38 122.949ZM1103.61 122.184C1103.61 121.97 1103.68 121.793 1103.83 121.652C1103.97 121.507 1104.15 121.428 1104.36 121.418H1104.37C1104.81 121.418 1105.18 121.348 1105.48 121.207C1105.78 121.061 1106.05 120.871 1106.27 120.637C1106.49 120.397 1106.69 120.126 1106.86 119.824C1107.02 119.517 1107.19 119.202 1107.35 118.879C1107.48 118.598 1107.62 118.329 1107.75 118.074C1107.89 117.819 1108.05 117.585 1108.22 117.371C1108.69 116.798 1109.26 116.512 1109.93 116.512C1110.71 116.512 1111.37 116.827 1111.89 117.457C1112.3 117.957 1112.55 118.585 1112.64 119.34C1112.69 119.699 1112.7 120.051 1112.66 120.395C1112.62 120.738 1112.55 121.064 1112.43 121.371C1112.28 121.746 1112.08 122.056 1111.83 122.301C1111.58 122.54 1111.29 122.704 1110.97 122.793C1110.38 122.949 1109.72 122.879 1108.99 122.582C1108.48 122.384 1107.96 122.082 1107.4 121.676C1107.37 121.712 1107.34 121.736 1107.33 121.746C1106.55 122.548 1105.56 122.949 1104.37 122.949H1104.36C1104.15 122.949 1103.97 122.876 1103.83 122.73C1103.68 122.579 1103.61 122.397 1103.61 122.184ZM1108.3 120.41C1108.78 120.759 1109.21 121.012 1109.6 121.168C1109.99 121.324 1110.31 121.366 1110.58 121.293C1110.66 121.272 1110.75 121.212 1110.83 121.113C1110.92 121.014 1110.99 120.887 1111.04 120.73C1111.11 120.574 1111.15 120.395 1111.17 120.191C1111.19 119.988 1111.19 119.77 1111.16 119.535C1111.16 119.499 1111.14 119.436 1111.12 119.348C1111.1 119.259 1111.07 119.16 1111.03 119.051C1110.99 118.941 1110.94 118.829 1110.88 118.715C1110.82 118.595 1110.74 118.488 1110.65 118.395C1110.56 118.296 1110.46 118.215 1110.34 118.152C1110.22 118.09 1110.08 118.059 1109.93 118.059C1109.82 118.059 1109.72 118.09 1109.63 118.152C1109.54 118.21 1109.45 118.301 1109.36 118.426C1109.27 118.551 1109.17 118.707 1109.07 118.895C1108.97 119.082 1108.85 119.303 1108.72 119.559L1108.3 120.41ZM1117.33 117.871C1117.48 118.355 1117.62 118.835 1117.75 119.309C1117.8 119.512 1117.85 119.723 1117.91 119.941C1117.97 120.16 1118.02 120.379 1118.07 120.598C1118.12 120.816 1118.16 121.03 1118.2 121.238C1118.24 121.441 1118.27 121.632 1118.29 121.809C1118.29 121.866 1118.3 121.931 1118.3 122.004C1118.31 122.077 1118.31 122.158 1118.31 122.246C1118.31 122.699 1118.24 123.139 1118.11 123.566C1117.98 123.993 1117.79 124.402 1117.55 124.793C1117.32 125.189 1117.04 125.566 1116.71 125.926C1116.38 126.285 1116.03 126.621 1115.65 126.934C1115.27 127.251 1114.86 127.546 1114.43 127.816C1114.01 128.087 1113.58 128.329 1113.15 128.543L1112.47 127.168C1113.01 126.897 1113.54 126.582 1114.06 126.223C1114.58 125.868 1115.03 125.48 1115.43 125.059C1115.84 124.637 1116.17 124.189 1116.41 123.715C1116.66 123.241 1116.78 122.751 1116.78 122.246C1116.78 122.22 1116.78 122.178 1116.77 122.121C1116.77 122.059 1116.76 121.999 1116.75 121.941V121.949C1116.74 121.788 1116.71 121.613 1116.68 121.426C1116.64 121.233 1116.6 121.038 1116.55 120.84C1116.5 120.637 1116.46 120.436 1116.4 120.238C1116.35 120.035 1116.3 119.84 1116.25 119.652C1116.12 119.215 1115.99 118.777 1115.85 118.34L1117.33 117.871ZM1117.68 114.699L1116.41 115.973L1115.13 114.691L1116.4 113.418L1117.68 114.699ZM1124.32 122.949C1123.74 122.949 1123.25 122.882 1122.84 122.746C1122.43 122.611 1122.09 122.402 1121.81 122.121C1121.64 121.949 1121.5 121.764 1121.41 121.566C1121.32 121.368 1121.25 121.173 1121.21 120.98C1121.17 120.788 1121.14 120.605 1121.14 120.434C1121.13 120.257 1121.13 120.105 1121.13 119.98V119.832C1121.13 119.827 1121.13 119.733 1121.14 119.551C1121.14 119.363 1121.15 119.113 1121.15 118.801C1121.15 118.483 1121.15 118.118 1121.15 117.707C1121.15 117.296 1121.15 116.861 1121.15 116.402C1121.15 115.954 1121.14 115.488 1121.13 115.004C1121.12 114.52 1121.1 114.051 1121.08 113.598C1121.06 113.145 1121.03 112.728 1121 112.348C1120.96 111.962 1120.92 111.647 1120.87 111.402L1122.4 111.121C1122.45 111.387 1122.49 111.712 1122.53 112.098C1122.56 112.483 1122.59 112.902 1122.61 113.355C1122.64 113.809 1122.66 114.283 1122.67 114.777C1122.68 115.267 1122.68 115.746 1122.68 116.215C1122.69 116.673 1122.69 117.113 1122.69 117.535C1122.69 117.957 1122.69 118.332 1122.69 118.66C1122.69 118.988 1122.69 119.259 1122.68 119.473C1122.68 119.686 1122.68 119.814 1122.68 119.855V119.996C1122.68 120.225 1122.69 120.428 1122.71 120.605C1122.73 120.777 1122.8 120.921 1122.92 121.035C1123.15 121.28 1123.6 121.405 1124.25 121.41H1124.32C1124.42 121.41 1124.52 121.431 1124.61 121.473C1124.71 121.514 1124.79 121.572 1124.86 121.645C1124.93 121.712 1124.99 121.793 1125.03 121.887C1125.07 121.98 1125.09 122.079 1125.09 122.184C1125.09 122.402 1125.02 122.585 1124.86 122.73C1124.71 122.876 1124.53 122.949 1124.32 122.949ZM1123.58 122.191C1123.58 122.092 1123.6 121.999 1123.64 121.91C1123.67 121.816 1123.73 121.736 1123.79 121.668C1123.86 121.595 1123.93 121.538 1124.02 121.496C1124.11 121.454 1124.2 121.428 1124.3 121.418C1124.61 121.418 1124.88 121.358 1125.13 121.238C1125.38 121.118 1125.6 120.96 1125.79 120.762C1125.98 120.559 1126.15 120.327 1126.29 120.066C1126.44 119.806 1126.56 119.535 1126.67 119.254C1126.77 118.967 1126.86 118.681 1126.93 118.395C1127 118.103 1127.06 117.829 1127.11 117.574L1128.66 117.902C1128.62 118.027 1128.57 118.189 1128.5 118.387C1128.45 118.585 1128.39 118.798 1128.33 119.027C1128.28 119.251 1128.23 119.483 1128.18 119.723C1128.14 119.957 1128.12 120.176 1128.12 120.379C1128.12 120.52 1128.13 120.658 1128.16 120.793C1128.19 120.923 1128.23 121.04 1128.29 121.145C1128.36 121.249 1128.44 121.332 1128.55 121.395C1128.66 121.457 1128.8 121.488 1128.97 121.488C1129.23 121.488 1129.47 121.415 1129.68 121.27C1129.89 121.124 1130.08 120.934 1130.24 120.699C1130.41 120.465 1130.55 120.199 1130.67 119.902C1130.79 119.605 1130.89 119.303 1130.97 118.996C1131.06 118.689 1131.13 118.392 1131.19 118.105C1131.25 117.814 1131.29 117.561 1131.33 117.348L1132.83 117.621C1132.83 117.621 1132.81 117.707 1132.78 117.879C1132.75 118.046 1132.72 118.251 1132.68 118.496C1132.64 118.736 1132.61 118.993 1132.58 119.27C1132.54 119.54 1132.53 119.783 1132.53 119.996C1132.53 120.189 1132.54 120.374 1132.57 120.551C1132.6 120.723 1132.65 120.876 1132.71 121.012C1132.78 121.142 1132.86 121.251 1132.97 121.34C1133.08 121.423 1133.21 121.473 1133.36 121.488C1133.6 121.52 1133.8 121.517 1133.96 121.48C1134.12 121.444 1134.25 121.397 1134.34 121.34C1134.43 121.277 1134.5 121.212 1134.54 121.145C1134.59 121.077 1134.62 121.027 1134.64 120.996H1134.63C1134.7 120.882 1134.75 120.751 1134.78 120.605C1134.81 120.46 1134.83 120.303 1134.83 120.137C1134.83 119.84 1134.78 119.52 1134.7 119.176C1134.62 118.832 1134.53 118.496 1134.41 118.168C1134.3 117.835 1134.18 117.527 1134.06 117.246C1133.94 116.96 1133.84 116.733 1133.75 116.566L1135.12 115.848C1135.15 115.9 1135.2 116.001 1135.27 116.152C1135.34 116.298 1135.43 116.48 1135.52 116.699C1135.61 116.913 1135.71 117.155 1135.81 117.426C1135.91 117.697 1136.01 117.983 1136.09 118.285C1136.17 118.582 1136.24 118.887 1136.29 119.199C1136.35 119.512 1136.38 119.816 1136.38 120.113C1136.38 120.561 1136.32 120.967 1136.19 121.332C1136.07 121.691 1135.88 121.999 1135.63 122.254C1135.38 122.509 1135.06 122.707 1134.68 122.848C1134.31 122.983 1133.87 123.048 1133.36 123.043C1133.16 123.043 1132.96 123.012 1132.76 122.949C1132.56 122.887 1132.37 122.803 1132.19 122.699C1132.01 122.59 1131.84 122.465 1131.68 122.324C1131.53 122.178 1131.4 122.022 1131.29 121.855C1130.97 122.22 1130.62 122.509 1130.22 122.723C1129.83 122.936 1129.41 123.043 1128.97 123.043C1128.77 123.043 1128.57 123.017 1128.36 122.965C1128.16 122.918 1127.97 122.845 1127.78 122.746C1127.59 122.647 1127.42 122.525 1127.26 122.379C1127.11 122.233 1126.99 122.064 1126.91 121.871C1126.6 122.199 1126.24 122.46 1125.85 122.652C1125.45 122.845 1124.98 122.947 1124.43 122.957H1124.3C1124.2 122.952 1124.11 122.928 1124.02 122.887C1123.93 122.845 1123.86 122.79 1123.79 122.723C1123.73 122.655 1123.67 122.577 1123.64 122.488C1123.6 122.395 1123.58 122.296 1123.58 122.191ZM1147.33 117.871C1147.18 117.871 1147.04 117.931 1146.9 118.051C1146.77 118.165 1146.65 118.314 1146.54 118.496C1146.43 118.678 1146.34 118.884 1146.27 119.113C1146.2 119.337 1146.15 119.561 1146.11 119.785C1146.09 120.004 1146.09 120.21 1146.11 120.402C1146.14 120.59 1146.2 120.738 1146.29 120.848C1146.36 120.952 1146.46 121.038 1146.58 121.105C1146.7 121.168 1146.83 121.22 1146.96 121.262C1147.09 121.298 1147.22 121.327 1147.34 121.348C1147.47 121.363 1147.58 121.374 1147.68 121.379C1148 121.4 1148.3 121.408 1148.58 121.402C1148.85 121.397 1149.09 121.387 1149.29 121.371C1149.28 121.043 1149.24 120.73 1149.18 120.434C1149.11 120.132 1149.03 119.853 1148.93 119.598C1148.84 119.342 1148.73 119.113 1148.61 118.91C1148.48 118.702 1148.35 118.522 1148.22 118.371C1148.17 118.319 1148.11 118.264 1148.04 118.207C1147.98 118.145 1147.91 118.09 1147.83 118.043C1147.76 117.991 1147.68 117.949 1147.59 117.918C1147.51 117.887 1147.42 117.871 1147.33 117.871ZM1143.89 126.926C1144.69 126.764 1145.41 126.54 1146.04 126.254C1146.68 125.967 1147.22 125.645 1147.68 125.285C1148.13 124.926 1148.49 124.543 1148.75 124.137C1149.01 123.736 1149.17 123.34 1149.23 122.949C1149.01 122.954 1148.75 122.954 1148.45 122.949C1148.15 122.949 1147.86 122.936 1147.58 122.91C1146.44 122.837 1145.61 122.467 1145.07 121.801C1144.83 121.499 1144.67 121.15 1144.61 120.754C1144.54 120.358 1144.54 119.954 1144.6 119.543C1144.66 119.126 1144.77 118.725 1144.93 118.34C1145.1 117.949 1145.29 117.613 1145.5 117.332C1145.77 117.004 1146.05 116.757 1146.36 116.59C1146.68 116.418 1147 116.332 1147.33 116.332C1148.07 116.332 1148.75 116.665 1149.37 117.332C1149.64 117.624 1149.87 117.962 1150.07 118.348C1150.27 118.728 1150.43 119.137 1150.56 119.574C1150.68 120.012 1150.77 120.467 1150.81 120.941C1150.86 121.415 1150.86 121.889 1150.81 122.363C1150.75 122.936 1150.62 123.47 1150.43 123.965C1150.23 124.465 1149.98 124.926 1149.67 125.348C1149.36 125.77 1149 126.152 1148.6 126.496C1148.2 126.84 1147.76 127.139 1147.29 127.395C1146.83 127.655 1146.34 127.871 1145.83 128.043C1145.31 128.22 1144.78 128.35 1144.25 128.434L1143.89 126.926ZM1162.63 122.949C1162.06 122.949 1161.56 122.882 1161.15 122.746C1160.75 122.611 1160.4 122.402 1160.12 122.121C1159.95 121.949 1159.82 121.764 1159.72 121.566C1159.63 121.368 1159.57 121.173 1159.52 120.98C1159.48 120.788 1159.46 120.605 1159.45 120.434C1159.44 120.257 1159.44 120.105 1159.44 119.98V119.832C1159.44 119.827 1159.44 119.733 1159.45 119.551C1159.46 119.363 1159.46 119.113 1159.46 118.801C1159.46 118.483 1159.47 118.118 1159.47 117.707C1159.47 117.296 1159.46 116.861 1159.46 116.402C1159.46 115.954 1159.45 115.488 1159.44 115.004C1159.43 114.52 1159.42 114.051 1159.4 113.598C1159.37 113.145 1159.35 112.728 1159.31 112.348C1159.27 111.962 1159.23 111.647 1159.18 111.402L1160.72 111.121C1160.76 111.387 1160.8 111.712 1160.84 112.098C1160.88 112.483 1160.91 112.902 1160.93 113.355C1160.95 113.809 1160.97 114.283 1160.98 114.777C1160.99 115.267 1161 115.746 1161 116.215C1161 116.673 1161 117.113 1161 117.535C1161 117.957 1161 118.332 1161 118.66C1161 118.988 1161 119.259 1161 119.473C1161 119.686 1161 119.814 1161 119.855V119.996C1160.99 120.225 1161 120.428 1161.02 120.605C1161.04 120.777 1161.11 120.921 1161.23 121.035C1161.47 121.28 1161.91 121.405 1162.56 121.41H1162.63C1162.73 121.41 1162.83 121.431 1162.93 121.473C1163.02 121.514 1163.1 121.572 1163.17 121.645C1163.24 121.712 1163.3 121.793 1163.34 121.887C1163.38 121.98 1163.4 122.079 1163.4 122.184C1163.4 122.402 1163.33 122.585 1163.18 122.73C1163.03 122.876 1162.84 122.949 1162.63 122.949ZM1161.8 122.176C1161.8 122.072 1161.82 121.975 1161.86 121.887C1161.91 121.793 1161.96 121.712 1162.04 121.645C1162.11 121.572 1162.19 121.517 1162.29 121.48C1162.39 121.439 1162.49 121.418 1162.6 121.418H1162.67C1162.98 121.418 1163.25 121.415 1163.49 121.41C1163.73 121.405 1163.94 121.397 1164.14 121.387C1164.33 121.376 1164.5 121.363 1164.66 121.348C1164.82 121.332 1164.98 121.314 1165.13 121.293C1164.74 120.871 1164.44 120.457 1164.25 120.051C1164.05 119.639 1163.96 119.243 1163.96 118.863C1163.96 118.603 1163.99 118.329 1164.06 118.043C1164.13 117.751 1164.24 117.473 1164.39 117.207C1164.54 116.936 1164.73 116.686 1164.95 116.457C1165.17 116.223 1165.44 116.03 1165.75 115.879L1165.14 115.637L1165.88 114.23L1168.6 115.348C1169.08 115.561 1169.55 115.775 1170 115.988C1170.45 116.202 1170.87 116.415 1171.25 116.629C1171.63 116.842 1171.97 117.059 1172.26 117.277C1172.55 117.496 1172.78 117.715 1172.94 117.934C1173.42 118.595 1173.66 119.272 1173.66 119.965C1173.66 120.475 1173.53 120.954 1173.25 121.402C1172.98 121.845 1172.58 122.212 1172.03 122.504L1172.04 122.496C1171.89 122.585 1171.72 122.66 1171.52 122.723C1171.32 122.78 1171.11 122.827 1170.9 122.863C1170.68 122.9 1170.47 122.928 1170.25 122.949C1170.03 122.965 1169.83 122.973 1169.65 122.973C1169.19 122.973 1168.74 122.939 1168.31 122.871C1167.88 122.803 1167.45 122.681 1167 122.504C1166.73 122.587 1166.42 122.658 1166.07 122.715C1165.72 122.772 1165.36 122.819 1164.98 122.855C1164.6 122.887 1164.21 122.91 1163.82 122.926C1163.42 122.941 1163.04 122.949 1162.67 122.949H1162.6C1162.49 122.949 1162.39 122.931 1162.29 122.895C1162.19 122.853 1162.11 122.798 1162.04 122.73C1161.96 122.658 1161.91 122.574 1161.86 122.48C1161.82 122.387 1161.8 122.285 1161.8 122.176ZM1170.08 118.488C1170.08 118.707 1170.05 118.944 1169.99 119.199C1169.93 119.454 1169.84 119.712 1169.72 119.973C1169.61 120.228 1169.48 120.48 1169.32 120.73C1169.16 120.98 1168.98 121.21 1168.78 121.418C1168.94 121.444 1169.08 121.46 1169.19 121.465C1169.3 121.47 1169.4 121.473 1169.5 121.473H1169.87C1170.27 121.473 1170.61 121.431 1170.9 121.348C1171.2 121.259 1171.44 121.142 1171.63 120.996C1171.82 120.85 1171.97 120.681 1172.06 120.488C1172.15 120.29 1172.2 120.085 1172.2 119.871C1172.2 119.689 1172.15 119.491 1172.06 119.277C1171.97 119.064 1171.83 118.85 1171.64 118.637C1171.46 118.418 1171.23 118.204 1170.95 117.996C1170.67 117.788 1170.35 117.598 1169.98 117.426C1170.04 117.624 1170.07 117.811 1170.08 117.988C1170.08 118.165 1170.08 118.332 1170.08 118.488ZM1168.48 118.426C1168.48 118.27 1168.47 118.105 1168.44 117.934C1168.42 117.757 1168.37 117.59 1168.29 117.434C1168.22 117.272 1168.11 117.132 1167.97 117.012C1167.84 116.887 1167.66 116.801 1167.43 116.754C1167.15 116.697 1166.88 116.725 1166.65 116.84C1166.41 116.949 1166.2 117.105 1166.02 117.309C1165.85 117.512 1165.71 117.741 1165.61 117.996C1165.52 118.251 1165.47 118.496 1165.47 118.73C1165.47 118.949 1165.5 119.158 1165.58 119.355C1165.66 119.553 1165.77 119.741 1165.9 119.918C1166.03 120.09 1166.19 120.254 1166.36 120.41C1166.54 120.561 1166.73 120.702 1166.93 120.832C1167.19 120.712 1167.42 120.561 1167.61 120.379C1167.81 120.197 1167.97 119.999 1168.1 119.785C1168.23 119.566 1168.33 119.34 1168.39 119.105C1168.45 118.871 1168.48 118.645 1168.48 118.426ZM1184.33 122.949C1184.3 122.949 1184.23 122.947 1184.13 122.941C1184.03 122.936 1183.91 122.923 1183.75 122.902C1183.6 122.876 1183.43 122.84 1183.24 122.793C1183.05 122.741 1182.86 122.668 1182.67 122.574C1182.17 122.345 1181.8 122.033 1181.54 121.637C1181.28 121.241 1181.15 120.775 1181.15 120.238C1181.15 119.301 1181.58 118.319 1182.43 117.293C1182.6 117.09 1182.76 116.908 1182.92 116.746C1183.08 116.585 1183.22 116.449 1183.34 116.34C1183.18 116.199 1183.06 116.09 1182.97 116.012C1182.87 115.934 1182.83 115.892 1182.83 115.887L1183.81 114.691C1183.81 114.702 1183.87 114.751 1183.97 114.84C1184.08 114.928 1184.22 115.051 1184.39 115.207C1184.55 115.363 1184.74 115.548 1184.96 115.762C1185.17 115.97 1185.39 116.199 1185.61 116.449C1186.25 117.173 1186.72 117.853 1187.04 118.488C1187.35 119.118 1187.51 119.702 1187.51 120.238C1187.51 120.775 1187.39 121.241 1187.15 121.637C1186.92 122.033 1186.57 122.342 1186.11 122.566C1185.95 122.65 1185.78 122.717 1185.61 122.77C1185.43 122.816 1185.27 122.855 1185.11 122.887C1184.96 122.913 1184.81 122.931 1184.67 122.941C1184.53 122.947 1184.42 122.949 1184.33 122.949ZM1184.42 117.449C1184.27 117.585 1184.09 117.757 1183.89 117.965C1183.69 118.173 1183.5 118.402 1183.33 118.652C1183.15 118.902 1183 119.165 1182.87 119.441C1182.75 119.712 1182.69 119.978 1182.69 120.238C1182.69 120.316 1182.7 120.397 1182.71 120.48C1182.72 120.564 1182.75 120.647 1182.79 120.73C1182.84 120.809 1182.91 120.887 1182.99 120.965C1183.07 121.043 1183.18 121.113 1183.33 121.176C1183.42 121.223 1183.53 121.262 1183.63 121.293C1183.73 121.319 1183.83 121.34 1183.92 121.355C1184.01 121.371 1184.09 121.382 1184.16 121.387C1184.23 121.392 1184.29 121.395 1184.33 121.395C1184.37 121.395 1184.44 121.395 1184.52 121.395C1184.61 121.389 1184.7 121.382 1184.8 121.371C1184.91 121.355 1185.01 121.335 1185.11 121.309C1185.22 121.277 1185.33 121.238 1185.43 121.191C1185.62 121.087 1185.76 120.962 1185.84 120.816C1185.93 120.665 1185.97 120.473 1185.97 120.238C1185.97 119.9 1185.84 119.493 1185.58 119.02C1185.32 118.546 1184.94 118.033 1184.45 117.48C1184.44 117.475 1184.44 117.47 1184.43 117.465C1184.43 117.46 1184.43 117.454 1184.42 117.449ZM1193.16 122.949C1192.59 122.949 1192.1 122.882 1191.68 122.746C1191.28 122.611 1190.93 122.402 1190.65 122.121C1190.48 121.949 1190.35 121.764 1190.25 121.566C1190.17 121.368 1190.1 121.173 1190.05 120.98C1190.01 120.788 1189.99 120.605 1189.98 120.434C1189.98 120.257 1189.97 120.105 1189.97 119.98V119.832C1189.97 119.827 1189.98 119.733 1189.98 119.551C1189.99 119.363 1189.99 119.113 1189.99 118.801C1189.99 118.483 1190 118.118 1190 117.707C1190 117.296 1189.99 116.861 1189.99 116.402C1189.99 115.954 1189.98 115.488 1189.97 115.004C1189.96 114.52 1189.95 114.051 1189.93 113.598C1189.91 113.145 1189.88 112.728 1189.84 112.348C1189.8 111.962 1189.76 111.647 1189.72 111.402L1191.25 111.121C1191.29 111.387 1191.34 111.712 1191.37 112.098C1191.41 112.483 1191.44 112.902 1191.46 113.355C1191.48 113.809 1191.5 114.283 1191.51 114.777C1191.52 115.267 1191.53 115.746 1191.53 116.215C1191.53 116.673 1191.54 117.113 1191.54 117.535C1191.54 117.957 1191.54 118.332 1191.54 118.66C1191.54 118.988 1191.53 119.259 1191.53 119.473C1191.53 119.686 1191.53 119.814 1191.53 119.855V119.996C1191.52 120.225 1191.53 120.428 1191.55 120.605C1191.57 120.777 1191.64 120.921 1191.76 121.035C1192 121.28 1192.44 121.405 1193.09 121.41H1193.16C1193.27 121.41 1193.36 121.431 1193.46 121.473C1193.55 121.514 1193.63 121.572 1193.7 121.645C1193.77 121.712 1193.83 121.793 1193.87 121.887C1193.91 121.98 1193.93 122.079 1193.93 122.184C1193.93 122.402 1193.86 122.585 1193.71 122.73C1193.56 122.876 1193.37 122.949 1193.16 122.949ZM1192.38 122.184C1192.38 122.079 1192.4 121.98 1192.44 121.887C1192.48 121.793 1192.54 121.712 1192.61 121.645C1192.68 121.572 1192.76 121.517 1192.86 121.48C1192.95 121.439 1193.05 121.418 1193.15 121.418H1193.22H1195.8C1196.01 121.418 1196.22 121.376 1196.43 121.293C1196.64 121.21 1196.83 121.098 1197 120.957C1197.17 120.816 1197.31 120.658 1197.42 120.48C1197.53 120.298 1197.6 120.113 1197.61 119.926C1197.64 119.629 1197.6 119.319 1197.5 118.996C1197.4 118.668 1197.25 118.337 1197.07 118.004C1196.88 117.671 1196.66 117.34 1196.41 117.012C1196.16 116.684 1195.9 116.374 1195.62 116.082C1195.35 115.785 1195.08 115.514 1194.8 115.27C1194.53 115.02 1194.27 114.803 1194.04 114.621L1194.24 112.895L1201.15 109.918L1201.75 111.34L1195.55 113.941C1195.95 114.259 1196.29 114.579 1196.59 114.902C1196.89 115.22 1197.16 115.54 1197.4 115.863C1197.64 116.186 1197.86 116.509 1198.04 116.832C1198.24 117.155 1198.42 117.478 1198.59 117.801C1198.77 118.124 1198.94 118.449 1199.11 118.777C1199.29 119.105 1199.47 119.436 1199.67 119.77C1199.82 120.02 1199.98 120.246 1200.15 120.449C1200.33 120.647 1200.51 120.816 1200.71 120.957C1200.91 121.098 1201.13 121.21 1201.37 121.293C1201.62 121.371 1201.88 121.413 1202.18 121.418H1202.5C1202.72 121.418 1202.91 121.493 1203.05 121.645C1203.2 121.79 1203.27 121.97 1203.27 122.184C1203.27 122.402 1203.2 122.585 1203.05 122.73C1202.91 122.876 1202.72 122.949 1202.5 122.949H1202.44C1202.07 122.949 1201.74 122.926 1201.45 122.879C1201.17 122.832 1200.89 122.764 1200.62 122.676C1200.25 122.54 1199.91 122.342 1199.6 122.082C1199.29 121.822 1199.01 121.54 1198.78 121.238C1198.6 121.572 1198.37 121.863 1198.11 122.113C1197.93 122.264 1197.75 122.392 1197.56 122.496C1197.37 122.6 1197.17 122.684 1196.97 122.746C1196.76 122.809 1196.55 122.855 1196.34 122.887C1196.13 122.918 1195.91 122.939 1195.7 122.949H1193.15C1192.94 122.949 1192.76 122.876 1192.61 122.73C1192.46 122.585 1192.38 122.402 1192.38 122.184ZM1200.6 108.973L1194.32 111.629L1194.37 110.629L1200.23 108.184L1200.6 108.973ZM1201.71 122.191C1201.71 122.092 1201.73 121.999 1201.76 121.91C1201.8 121.816 1201.85 121.736 1201.92 121.668C1201.98 121.595 1202.06 121.538 1202.15 121.496C1202.23 121.454 1202.33 121.428 1202.43 121.418C1202.73 121.418 1203.01 121.358 1203.25 121.238C1203.5 121.118 1203.72 120.96 1203.91 120.762C1204.1 120.559 1204.27 120.327 1204.42 120.066C1204.56 119.806 1204.69 119.535 1204.79 119.254C1204.9 118.967 1204.98 118.681 1205.05 118.395C1205.12 118.103 1205.19 117.829 1205.24 117.574L1206.79 117.902C1206.74 118.027 1206.69 118.189 1206.63 118.387C1206.57 118.585 1206.52 118.798 1206.46 119.027C1206.4 119.251 1206.35 119.483 1206.31 119.723C1206.27 119.957 1206.25 120.176 1206.25 120.379C1206.25 120.52 1206.26 120.658 1206.29 120.793C1206.31 120.923 1206.36 121.04 1206.42 121.145C1206.48 121.249 1206.57 121.332 1206.68 121.395C1206.79 121.457 1206.92 121.488 1207.09 121.488C1207.36 121.488 1207.59 121.415 1207.8 121.27C1208.02 121.124 1208.2 120.934 1208.36 120.699C1208.53 120.465 1208.67 120.199 1208.79 119.902C1208.91 119.605 1209.02 119.303 1209.1 118.996C1209.19 118.689 1209.26 118.392 1209.32 118.105C1209.37 117.814 1209.42 117.561 1209.45 117.348L1210.95 117.621C1210.95 117.621 1210.93 117.707 1210.9 117.879C1210.88 118.046 1210.84 118.251 1210.8 118.496C1210.77 118.736 1210.73 118.993 1210.7 119.27C1210.67 119.54 1210.65 119.783 1210.65 119.996C1210.65 120.189 1210.67 120.374 1210.69 120.551C1210.72 120.723 1210.77 120.876 1210.83 121.012C1210.9 121.142 1210.99 121.251 1211.09 121.34C1211.2 121.423 1211.33 121.473 1211.49 121.488C1211.73 121.52 1211.93 121.517 1212.08 121.48C1212.24 121.444 1212.37 121.397 1212.47 121.34C1212.56 121.277 1212.63 121.212 1212.67 121.145C1212.72 121.077 1212.75 121.027 1212.76 120.996H1212.75C1212.83 120.882 1212.88 120.751 1212.9 120.605C1212.93 120.46 1212.95 120.303 1212.95 120.137C1212.95 119.84 1212.91 119.52 1212.83 119.176C1212.75 118.832 1212.65 118.496 1212.54 118.168C1212.43 117.835 1212.31 117.527 1212.18 117.246C1212.06 116.96 1211.96 116.733 1211.88 116.566L1213.25 115.848C1213.27 115.9 1213.32 116.001 1213.4 116.152C1213.47 116.298 1213.55 116.48 1213.65 116.699C1213.74 116.913 1213.84 117.155 1213.93 117.426C1214.04 117.697 1214.13 117.983 1214.22 118.285C1214.3 118.582 1214.37 118.887 1214.42 119.199C1214.48 119.512 1214.5 119.816 1214.5 120.113C1214.5 120.561 1214.44 120.967 1214.32 121.332C1214.19 121.691 1214 121.999 1213.75 122.254C1213.5 122.509 1213.19 122.707 1212.81 122.848C1212.43 122.983 1211.99 123.048 1211.49 123.043C1211.29 123.043 1211.09 123.012 1210.89 122.949C1210.69 122.887 1210.5 122.803 1210.32 122.699C1210.13 122.59 1209.97 122.465 1209.81 122.324C1209.65 122.178 1209.52 122.022 1209.41 121.855C1209.1 122.22 1208.74 122.509 1208.35 122.723C1207.95 122.936 1207.53 123.043 1207.09 123.043C1206.9 123.043 1206.7 123.017 1206.49 122.965C1206.29 122.918 1206.09 122.845 1205.9 122.746C1205.72 122.647 1205.54 122.525 1205.39 122.379C1205.24 122.233 1205.12 122.064 1205.04 121.871C1204.72 122.199 1204.37 122.46 1203.97 122.652C1203.58 122.845 1203.1 122.947 1202.55 122.957H1202.43C1202.33 122.952 1202.23 122.928 1202.15 122.887C1202.06 122.845 1201.98 122.79 1201.92 122.723C1201.85 122.655 1201.8 122.577 1201.76 122.488C1201.73 122.395 1201.71 122.296 1201.71 122.191ZM1210.04 113.66L1211.31 112.395L1212.59 113.676L1211.33 114.941L1210.04 113.66ZM1206.61 113.652L1207.88 112.379L1209.16 113.66L1207.9 114.934L1206.61 113.652ZM1208.5 111.301L1209.65 110.145L1210.82 111.309L1209.66 112.465L1208.5 111.301ZM1219.52 117.871C1219.37 117.871 1219.23 117.931 1219.09 118.051C1218.96 118.165 1218.83 118.314 1218.72 118.496C1218.62 118.678 1218.53 118.884 1218.46 119.113C1218.38 119.337 1218.33 119.561 1218.3 119.785C1218.28 120.004 1218.28 120.21 1218.3 120.402C1218.33 120.59 1218.38 120.738 1218.47 120.848C1218.55 120.952 1218.65 121.038 1218.77 121.105C1218.89 121.168 1219.02 121.22 1219.15 121.262C1219.28 121.298 1219.4 121.327 1219.53 121.348C1219.66 121.363 1219.77 121.374 1219.86 121.379C1220.19 121.4 1220.49 121.408 1220.76 121.402C1221.04 121.397 1221.28 121.387 1221.48 121.371C1221.47 121.043 1221.43 120.73 1221.36 120.434C1221.3 120.132 1221.22 119.853 1221.12 119.598C1221.03 119.342 1220.92 119.113 1220.79 118.91C1220.67 118.702 1220.54 118.522 1220.41 118.371C1220.36 118.319 1220.3 118.264 1220.23 118.207C1220.17 118.145 1220.1 118.09 1220.02 118.043C1219.95 117.991 1219.87 117.949 1219.78 117.918C1219.69 117.887 1219.61 117.871 1219.52 117.871ZM1216.08 126.926C1216.88 126.764 1217.6 126.54 1218.23 126.254C1218.87 125.967 1219.41 125.645 1219.86 125.285C1220.32 124.926 1220.67 124.543 1220.93 124.137C1221.2 123.736 1221.36 123.34 1221.42 122.949C1221.2 122.954 1220.94 122.954 1220.64 122.949C1220.34 122.949 1220.05 122.936 1219.76 122.91C1218.63 122.837 1217.8 122.467 1217.25 121.801C1217.02 121.499 1216.86 121.15 1216.79 120.754C1216.73 120.358 1216.73 119.954 1216.79 119.543C1216.85 119.126 1216.96 118.725 1217.12 118.34C1217.28 117.949 1217.47 117.613 1217.69 117.332C1217.95 117.004 1218.24 116.757 1218.55 116.59C1218.86 116.418 1219.19 116.332 1219.52 116.332C1220.26 116.332 1220.94 116.665 1221.56 117.332C1221.83 117.624 1222.06 117.962 1222.25 118.348C1222.46 118.728 1222.62 119.137 1222.75 119.574C1222.87 120.012 1222.96 120.467 1223 120.941C1223.04 121.415 1223.04 121.889 1223 122.363C1222.94 122.936 1222.81 123.47 1222.61 123.965C1222.42 124.465 1222.16 124.926 1221.86 125.348C1221.55 125.77 1221.19 126.152 1220.79 126.496C1220.38 126.84 1219.95 127.139 1219.48 127.395C1219.02 127.655 1218.53 127.871 1218.01 128.043C1217.5 128.22 1216.97 128.35 1216.43 128.434L1216.08 126.926ZM1228.78 122.41C1228.78 122.863 1228.71 123.303 1228.58 123.73C1228.44 124.158 1228.26 124.569 1228.02 124.965C1227.79 125.361 1227.5 125.736 1227.18 126.09C1226.85 126.449 1226.5 126.788 1226.11 127.105C1225.73 127.423 1225.33 127.715 1224.9 127.98C1224.48 128.251 1224.05 128.496 1223.61 128.715L1222.94 127.332C1223.32 127.139 1223.69 126.928 1224.06 126.699C1224.43 126.47 1224.78 126.223 1225.11 125.957C1225.43 125.691 1225.74 125.41 1226.01 125.113C1226.29 124.816 1226.52 124.507 1226.71 124.184C1226.9 123.861 1227.04 123.525 1227.14 123.176C1227.23 122.832 1227.26 122.475 1227.22 122.105V122.121C1227.19 121.824 1227.13 121.507 1227.05 121.168C1226.98 120.824 1226.9 120.488 1226.8 120.16C1226.71 119.832 1226.62 119.525 1226.54 119.238C1226.45 118.947 1226.38 118.704 1226.32 118.512L1227.79 118.059C1227.98 118.663 1228.18 119.178 1228.36 119.605C1228.56 120.027 1228.75 120.374 1228.95 120.645C1229.15 120.91 1229.36 121.105 1229.58 121.23C1229.8 121.355 1230.04 121.418 1230.3 121.418H1230.34C1230.45 121.418 1230.55 121.439 1230.65 121.48C1230.74 121.522 1230.82 121.579 1230.89 121.652C1230.96 121.72 1231.02 121.801 1231.05 121.895C1231.09 121.988 1231.11 122.087 1231.11 122.191C1231.11 122.41 1231.04 122.592 1230.89 122.738C1230.74 122.879 1230.56 122.949 1230.34 122.949H1230.33C1230.26 122.949 1230.16 122.947 1230.04 122.941C1229.93 122.936 1229.8 122.915 1229.65 122.879C1229.51 122.842 1229.37 122.785 1229.22 122.707C1229.06 122.629 1228.92 122.52 1228.78 122.379V122.41ZM1233.61 115.707C1233.54 115.707 1233.46 115.743 1233.36 115.816C1233.26 115.884 1233.16 115.988 1233.06 116.129C1232.97 116.27 1232.88 116.441 1232.79 116.645C1232.71 116.848 1232.65 117.082 1232.61 117.348C1232.53 117.738 1232.58 118.03 1232.74 118.223C1232.84 118.348 1232.99 118.449 1233.19 118.527C1233.4 118.605 1233.64 118.652 1233.92 118.668C1234.18 118.678 1234.43 118.684 1234.66 118.684C1234.9 118.684 1235.1 118.678 1235.27 118.668C1235.23 118.163 1235.13 117.686 1234.97 117.238C1234.82 116.785 1234.61 116.413 1234.34 116.121C1234.26 116.027 1234.15 115.936 1234.02 115.848C1233.9 115.754 1233.76 115.707 1233.61 115.707ZM1229.48 122.184C1229.48 121.965 1229.56 121.783 1229.71 121.637C1229.86 121.491 1230.04 121.418 1230.26 121.418C1230.84 121.418 1231.37 121.392 1231.86 121.34C1232.35 121.283 1232.78 121.212 1233.16 121.129C1233.55 121.04 1233.87 120.944 1234.14 120.84C1234.4 120.73 1234.6 120.626 1234.72 120.527C1234.79 120.47 1234.85 120.418 1234.89 120.371C1234.93 120.324 1234.97 120.277 1235.01 120.23H1234.22C1233.94 120.23 1233.67 120.21 1233.4 120.168C1233.14 120.121 1232.89 120.053 1232.65 119.965C1232.42 119.876 1232.21 119.767 1232.01 119.637C1231.82 119.501 1231.66 119.348 1231.52 119.176C1231.45 119.082 1231.37 118.97 1231.3 118.84C1231.23 118.704 1231.17 118.551 1231.12 118.379C1231.08 118.202 1231.05 118.007 1231.04 117.793C1231.03 117.574 1231.04 117.335 1231.08 117.074C1231.16 116.673 1231.26 116.309 1231.4 115.98C1231.54 115.647 1231.72 115.35 1231.92 115.09C1232.15 114.783 1232.42 114.551 1232.71 114.395C1233 114.238 1233.3 114.16 1233.61 114.16C1234.3 114.16 1234.93 114.465 1235.49 115.074C1235.73 115.34 1235.94 115.647 1236.12 115.996C1236.31 116.345 1236.46 116.72 1236.58 117.121C1236.69 117.517 1236.77 117.928 1236.81 118.355C1236.85 118.783 1236.85 119.204 1236.8 119.621H1236.79C1236.76 119.829 1236.72 120.04 1236.66 120.254C1236.65 120.316 1236.62 120.402 1236.59 120.512C1236.56 120.616 1236.51 120.736 1236.43 120.871C1236.36 121.001 1236.26 121.142 1236.14 121.293C1236.02 121.439 1235.86 121.585 1235.68 121.73C1235.43 121.928 1235.11 122.103 1234.72 122.254C1234.34 122.405 1233.92 122.533 1233.46 122.637C1232.99 122.736 1232.5 122.811 1231.97 122.863C1231.45 122.915 1230.92 122.944 1230.38 122.949H1230.25C1230.03 122.949 1229.85 122.876 1229.71 122.73C1229.56 122.579 1229.48 122.397 1229.48 122.184ZM1234.65 111.465L1233.37 112.738L1232.09 111.457L1233.36 110.184L1234.65 111.465ZM1257.37 122.949C1256.68 122.949 1256.06 122.788 1255.5 122.465C1255.53 122.861 1255.51 123.262 1255.47 123.668C1255.42 124.079 1255.34 124.496 1255.21 124.918C1255.06 125.397 1254.83 125.835 1254.54 126.23C1254.24 126.632 1253.87 126.973 1253.43 127.254C1252.96 127.582 1252.41 127.829 1251.81 127.996C1251.21 128.168 1250.53 128.275 1249.77 128.316H1249.45C1248.77 128.316 1248.15 128.217 1247.58 128.02C1247.02 127.822 1246.52 127.535 1246.08 127.16C1245.67 126.801 1245.34 126.376 1245.08 125.887C1244.83 125.397 1244.66 124.866 1244.58 124.293C1244.53 123.975 1244.51 123.658 1244.51 123.34C1244.52 123.022 1244.54 122.715 1244.58 122.418C1244.61 122.121 1244.66 121.84 1244.72 121.574C1244.77 121.309 1244.84 121.069 1244.9 120.855C1245.07 120.324 1245.24 119.874 1245.43 119.504C1245.61 119.129 1245.77 118.848 1245.9 118.66L1247.15 119.566C1247.08 119.655 1247 119.788 1246.9 119.965C1246.81 120.142 1246.72 120.348 1246.63 120.582C1246.54 120.816 1246.46 121.074 1246.37 121.355C1246.29 121.632 1246.22 121.923 1246.16 122.23C1246.11 122.533 1246.08 122.84 1246.06 123.152C1246.04 123.47 1246.06 123.777 1246.11 124.074C1246.13 124.21 1246.16 124.371 1246.22 124.559C1246.27 124.746 1246.34 124.939 1246.44 125.137C1246.54 125.34 1246.67 125.54 1246.83 125.738C1246.99 125.936 1247.19 126.111 1247.43 126.262C1247.67 126.418 1247.95 126.543 1248.28 126.637C1248.61 126.736 1249 126.785 1249.44 126.785H1249.56C1249.59 126.785 1249.61 126.785 1249.63 126.785C1249.66 126.785 1249.68 126.783 1249.71 126.777C1250.81 126.72 1251.69 126.496 1252.37 126.105C1253.05 125.72 1253.5 125.168 1253.73 124.449C1253.87 123.996 1253.94 123.546 1253.95 123.098C1253.96 122.65 1253.93 122.223 1253.86 121.816C1253.8 121.405 1253.7 121.022 1253.58 120.668C1253.46 120.314 1253.34 119.999 1253.22 119.723C1253.17 119.618 1253.11 119.512 1253.07 119.402C1253.02 119.293 1252.97 119.181 1252.91 119.066C1252.87 118.983 1252.83 118.921 1252.8 118.879C1252.77 118.837 1252.75 118.811 1252.75 118.801L1254.06 117.973C1254.08 117.993 1254.13 118.098 1254.23 118.285C1254.34 118.473 1254.46 118.723 1254.61 119.035C1254.9 119.577 1255.17 120.007 1255.42 120.324C1255.67 120.642 1255.92 120.882 1256.15 121.043C1256.37 121.204 1256.59 121.309 1256.79 121.355C1257 121.397 1257.19 121.418 1257.37 121.418C1257.59 121.418 1257.77 121.491 1257.92 121.637C1258.07 121.783 1258.15 121.965 1258.15 122.184C1258.15 122.397 1258.07 122.579 1257.92 122.73C1257.77 122.876 1257.59 122.949 1257.37 122.949ZM1251.33 118.465L1250.05 119.738L1248.77 118.457L1250.04 117.184L1251.33 118.465ZM1260 125.645L1258.73 126.91L1257.45 125.637L1258.72 124.363L1260 125.645ZM1263.2 125.652L1261.93 126.926L1260.65 125.645L1261.92 124.379L1263.2 125.652ZM1256.23 122.184C1256.23 121.965 1256.31 121.783 1256.46 121.637C1256.6 121.491 1256.78 121.418 1257 121.418H1257.86C1258.05 121.423 1258.24 121.426 1258.46 121.426C1258.67 121.421 1258.89 121.408 1259.11 121.387C1259.33 121.366 1259.54 121.337 1259.75 121.301C1259.96 121.259 1260.16 121.204 1260.33 121.137C1260.51 121.064 1260.67 120.975 1260.8 120.871C1260.94 120.767 1261.04 120.642 1261.11 120.496C1261.21 120.272 1261.24 119.954 1261.19 119.543C1261.15 119.126 1261.05 118.642 1260.88 118.09C1260.82 117.923 1260.75 117.743 1260.68 117.551C1260.6 117.353 1260.53 117.171 1260.46 117.004C1260.37 116.806 1260.29 116.611 1260.2 116.418L1261.59 115.73C1261.59 115.736 1261.61 115.79 1261.66 115.895C1261.71 115.993 1261.78 116.129 1261.85 116.301C1261.92 116.473 1262 116.673 1262.09 116.902C1262.18 117.126 1262.26 117.366 1262.34 117.621C1262.83 119.116 1262.88 120.283 1262.52 121.121C1262.15 121.96 1261.49 122.512 1260.55 122.777C1260.41 122.819 1260.23 122.853 1260.01 122.879C1259.79 122.9 1259.57 122.915 1259.34 122.926C1259.11 122.936 1258.89 122.944 1258.68 122.949C1258.48 122.949 1258.31 122.949 1258.2 122.949H1257.07H1257C1256.78 122.949 1256.6 122.876 1256.46 122.73C1256.31 122.585 1256.23 122.402 1256.23 122.184ZM1269.06 122.41C1269.06 122.863 1268.99 123.303 1268.86 123.73C1268.73 124.158 1268.54 124.569 1268.3 124.965C1268.07 125.361 1267.79 125.736 1267.46 126.09C1267.13 126.449 1266.78 126.788 1266.4 127.105C1266.02 127.423 1265.61 127.715 1265.18 127.98C1264.76 128.251 1264.33 128.496 1263.9 128.715L1263.22 127.332C1263.6 127.139 1263.97 126.928 1264.34 126.699C1264.71 126.47 1265.06 126.223 1265.39 125.957C1265.72 125.691 1266.02 125.41 1266.29 125.113C1266.57 124.816 1266.8 124.507 1266.99 124.184C1267.18 123.861 1267.33 123.525 1267.42 123.176C1267.51 122.832 1267.54 122.475 1267.5 122.105V122.121C1267.47 121.824 1267.41 121.507 1267.33 121.168C1267.26 120.824 1267.18 120.488 1267.08 120.16C1266.99 119.832 1266.91 119.525 1266.82 119.238C1266.73 118.947 1266.66 118.704 1266.6 118.512L1268.07 118.059C1268.27 118.663 1268.46 119.178 1268.65 119.605C1268.84 120.027 1269.03 120.374 1269.23 120.645C1269.43 120.91 1269.65 121.105 1269.86 121.23C1270.08 121.355 1270.32 121.418 1270.58 121.418H1270.62C1270.73 121.418 1270.83 121.439 1270.93 121.48C1271.02 121.522 1271.1 121.579 1271.17 121.652C1271.24 121.72 1271.3 121.801 1271.33 121.895C1271.37 121.988 1271.4 122.087 1271.4 122.191C1271.4 122.41 1271.32 122.592 1271.17 122.738C1271.02 122.879 1270.84 122.949 1270.62 122.949H1270.61C1270.54 122.949 1270.44 122.947 1270.33 122.941C1270.21 122.936 1270.08 122.915 1269.93 122.879C1269.79 122.842 1269.65 122.785 1269.5 122.707C1269.35 122.629 1269.2 122.52 1269.06 122.379V122.41ZM1269.73 122.184C1269.73 121.965 1269.8 121.783 1269.95 121.637C1270.1 121.486 1270.28 121.41 1270.5 121.41H1271.09C1271.53 121.41 1271.95 121.384 1272.35 121.332C1272.75 121.28 1273.1 121.184 1273.4 121.043C1273.71 120.902 1273.95 120.712 1274.13 120.473C1274.31 120.228 1274.39 119.915 1274.37 119.535C1274.36 119.243 1274.34 118.941 1274.29 118.629C1274.26 118.316 1274.18 117.96 1274.07 117.559L1275.53 117.145C1275.58 117.327 1275.62 117.52 1275.66 117.723C1275.7 117.921 1275.74 118.124 1275.77 118.332C1275.8 118.54 1275.83 118.751 1275.85 118.965C1275.87 119.173 1275.89 119.379 1275.9 119.582C1275.91 119.775 1275.94 119.978 1275.97 120.191C1276.01 120.405 1276.08 120.603 1276.17 120.785C1276.26 120.967 1276.39 121.118 1276.55 121.238C1276.72 121.358 1276.93 121.418 1277.2 121.418C1277.42 121.418 1277.6 121.491 1277.75 121.637C1277.91 121.783 1277.98 121.965 1277.98 122.184C1277.98 122.293 1277.96 122.395 1277.92 122.488C1277.88 122.577 1277.82 122.658 1277.75 122.73C1277.68 122.798 1277.6 122.853 1277.5 122.895C1277.42 122.931 1277.32 122.949 1277.22 122.949C1276.69 122.949 1276.25 122.855 1275.91 122.668C1275.57 122.475 1275.29 122.236 1275.07 121.949C1274.88 122.132 1274.64 122.288 1274.34 122.418C1274.04 122.543 1273.72 122.645 1273.36 122.723C1273 122.801 1272.63 122.858 1272.24 122.895C1271.85 122.931 1271.47 122.949 1271.09 122.949H1270.5C1270.28 122.949 1270.1 122.876 1269.95 122.73C1269.8 122.585 1269.73 122.402 1269.73 122.184ZM1273.69 114.449L1272.43 115.715L1271.15 114.441L1272.41 113.168L1273.69 114.449ZM1276.9 114.457L1275.63 115.73L1274.35 114.449L1275.61 113.184L1276.9 114.457ZM1276.54 122.191C1276.54 121.973 1276.61 121.79 1276.77 121.645C1276.93 121.493 1277.13 121.418 1277.38 121.418H1278.2C1278.51 121.418 1278.84 121.415 1279.18 121.41C1279.52 121.4 1279.84 121.368 1280.15 121.316C1280.46 121.259 1280.74 121.173 1280.99 121.059C1281.24 120.939 1281.44 120.77 1281.59 120.551C1281.76 120.29 1281.86 120.007 1281.89 119.699C1281.92 119.392 1281.89 119.059 1281.79 118.699C1281.74 118.486 1281.59 118.215 1281.36 117.887C1281.14 117.553 1280.86 117.199 1280.53 116.824C1280.19 116.444 1279.82 116.056 1279.41 115.66C1279 115.264 1278.58 114.895 1278.15 114.551L1278.33 112.949L1284.75 110.199L1285.36 111.621L1279.76 113.973C1280.02 114.191 1280.3 114.436 1280.6 114.707C1280.9 114.978 1281.2 115.277 1281.5 115.605C1281.89 116.043 1282.22 116.462 1282.47 116.863C1282.73 117.259 1282.93 117.637 1283.07 117.996C1283.21 118.355 1283.3 118.697 1283.35 119.02C1283.4 119.337 1283.41 119.637 1283.38 119.918C1283.35 120.199 1283.3 120.46 1283.22 120.699C1283.14 120.939 1283.04 121.158 1282.93 121.355C1282.47 122.178 1281.69 122.691 1280.58 122.895C1280.38 122.931 1280.16 122.949 1279.9 122.949H1277.38C1277.13 122.949 1276.93 122.876 1276.77 122.73C1276.61 122.585 1276.54 122.405 1276.54 122.191ZM1284.49 109.199L1278.21 111.855L1278.26 110.855L1284.12 108.41L1284.49 109.199ZM1288.02 117.871C1288.17 118.355 1288.3 118.835 1288.43 119.309C1288.49 119.512 1288.54 119.723 1288.6 119.941C1288.66 120.16 1288.71 120.379 1288.75 120.598C1288.81 120.816 1288.85 121.03 1288.89 121.238C1288.92 121.441 1288.95 121.632 1288.97 121.809C1288.98 121.866 1288.98 121.931 1288.99 122.004C1288.99 122.077 1289 122.158 1289 122.246C1289 122.699 1288.93 123.139 1288.79 123.566C1288.66 123.993 1288.48 124.402 1288.24 124.793C1288 125.189 1287.72 125.566 1287.4 125.926C1287.07 126.285 1286.72 126.621 1286.33 126.934C1285.95 127.251 1285.55 127.546 1285.12 127.816C1284.7 128.087 1284.27 128.329 1283.83 128.543L1283.15 127.168C1283.7 126.897 1284.23 126.582 1284.75 126.223C1285.26 125.868 1285.72 125.48 1286.12 125.059C1286.53 124.637 1286.85 124.189 1287.1 123.715C1287.34 123.241 1287.47 122.751 1287.47 122.246C1287.47 122.22 1287.46 122.178 1287.46 122.121C1287.45 122.059 1287.45 121.999 1287.44 121.941V121.949C1287.43 121.788 1287.4 121.613 1287.36 121.426C1287.33 121.233 1287.29 121.038 1287.24 120.84C1287.19 120.637 1287.14 120.436 1287.09 120.238C1287.04 120.035 1286.99 119.84 1286.93 119.652C1286.81 119.215 1286.68 118.777 1286.54 118.34L1288.02 117.871ZM1294.83 122.41C1294.83 122.863 1294.76 123.303 1294.62 123.73C1294.49 124.158 1294.31 124.569 1294.07 124.965C1293.83 125.361 1293.55 125.736 1293.22 126.09C1292.9 126.449 1292.55 126.788 1292.16 127.105C1291.78 127.423 1291.38 127.715 1290.95 127.98C1290.53 128.251 1290.1 128.496 1289.66 128.715L1288.99 127.332C1289.36 127.139 1289.74 126.928 1290.11 126.699C1290.48 126.47 1290.83 126.223 1291.15 125.957C1291.48 125.691 1291.78 125.41 1292.06 125.113C1292.34 124.816 1292.57 124.507 1292.75 124.184C1292.95 123.861 1293.09 123.525 1293.18 123.176C1293.28 122.832 1293.31 122.475 1293.27 122.105V122.121C1293.23 121.824 1293.18 121.507 1293.1 121.168C1293.03 120.824 1292.94 120.488 1292.85 120.16C1292.76 119.832 1292.67 119.525 1292.58 119.238C1292.5 118.947 1292.43 118.704 1292.36 118.512L1293.83 118.059C1294.03 118.663 1294.22 119.178 1294.41 119.605C1294.6 120.027 1294.8 120.374 1295 120.645C1295.2 120.91 1295.41 121.105 1295.63 121.23C1295.85 121.355 1296.09 121.418 1296.35 121.418H1296.39C1296.5 121.418 1296.6 121.439 1296.69 121.48C1296.79 121.522 1296.87 121.579 1296.93 121.652C1297.01 121.72 1297.06 121.801 1297.1 121.895C1297.14 121.988 1297.16 122.087 1297.16 122.191C1297.16 122.41 1297.09 122.592 1296.93 122.738C1296.79 122.879 1296.61 122.949 1296.39 122.949H1296.38C1296.31 122.949 1296.21 122.947 1296.09 122.941C1295.98 122.936 1295.85 122.915 1295.7 122.879C1295.56 122.842 1295.41 122.785 1295.26 122.707C1295.11 122.629 1294.97 122.52 1294.83 122.379V122.41ZM1294.18 114.809L1292.91 116.082L1291.63 114.801L1292.9 113.527L1294.18 114.809ZM1295.67 122.184C1295.67 121.965 1295.74 121.783 1295.9 121.637C1296.04 121.491 1296.22 121.418 1296.43 121.418H1297.24C1297.52 121.428 1297.78 121.428 1298.04 121.418C1298.29 121.402 1298.53 121.363 1298.74 121.301C1298.95 121.238 1299.14 121.145 1299.3 121.02C1299.47 120.889 1299.6 120.715 1299.71 120.496C1299.81 120.272 1299.84 119.954 1299.79 119.543C1299.75 119.126 1299.65 118.642 1299.48 118.09C1299.42 117.923 1299.36 117.743 1299.28 117.551C1299.21 117.353 1299.13 117.171 1299.06 117.004C1298.98 116.806 1298.89 116.611 1298.8 116.418L1300.19 115.73C1300.19 115.736 1300.22 115.79 1300.26 115.895C1300.31 115.993 1300.38 116.129 1300.45 116.301C1300.52 116.473 1300.6 116.673 1300.69 116.902C1300.78 117.126 1300.86 117.366 1300.94 117.621C1301.43 119.116 1301.49 120.283 1301.12 121.121C1300.75 121.96 1300.1 122.512 1299.15 122.777C1298.87 122.861 1298.6 122.91 1298.33 122.926C1298.06 122.941 1297.81 122.949 1297.58 122.949H1296.5H1296.43C1296.22 122.949 1296.04 122.876 1295.9 122.73C1295.74 122.585 1295.67 122.402 1295.67 122.184ZM1300.06 125.887L1298.79 127.16L1297.5 125.879L1298.78 124.605L1300.06 125.887ZM1313.05 122.949C1312.48 122.949 1311.99 122.882 1311.58 122.746C1311.17 122.611 1310.83 122.402 1310.54 122.121C1310.37 121.949 1310.24 121.764 1310.15 121.566C1310.06 121.368 1309.99 121.173 1309.94 120.98C1309.9 120.788 1309.88 120.605 1309.87 120.434C1309.87 120.257 1309.86 120.105 1309.86 119.98V119.832C1309.86 119.827 1309.87 119.733 1309.87 119.551C1309.88 119.363 1309.88 119.113 1309.88 118.801C1309.88 118.483 1309.89 118.118 1309.89 117.707C1309.89 117.296 1309.88 116.861 1309.88 116.402C1309.88 115.954 1309.87 115.488 1309.86 115.004C1309.85 114.52 1309.84 114.051 1309.82 113.598C1309.8 113.145 1309.77 112.728 1309.73 112.348C1309.69 111.962 1309.65 111.647 1309.61 111.402L1311.14 111.121C1311.18 111.387 1311.23 111.712 1311.26 112.098C1311.3 112.483 1311.33 112.902 1311.35 113.355C1311.37 113.809 1311.39 114.283 1311.4 114.777C1311.41 115.267 1311.42 115.746 1311.42 116.215C1311.42 116.673 1311.43 117.113 1311.43 117.535C1311.43 117.957 1311.43 118.332 1311.43 118.66C1311.43 118.988 1311.42 119.259 1311.42 119.473C1311.42 119.686 1311.42 119.814 1311.42 119.855V119.996C1311.41 120.225 1311.42 120.428 1311.44 120.605C1311.46 120.777 1311.53 120.921 1311.65 121.035C1311.89 121.28 1312.33 121.405 1312.98 121.41H1313.05C1313.16 121.41 1313.25 121.431 1313.35 121.473C1313.44 121.514 1313.52 121.572 1313.59 121.645C1313.66 121.712 1313.72 121.793 1313.76 121.887C1313.8 121.98 1313.83 122.079 1313.83 122.184C1313.83 122.402 1313.75 122.585 1313.6 122.73C1313.45 122.876 1313.27 122.949 1313.05 122.949ZM1312.22 122.184C1312.22 121.965 1312.29 121.783 1312.44 121.637C1312.59 121.491 1312.77 121.418 1312.98 121.418H1313.79C1314.06 121.428 1314.33 121.428 1314.58 121.418C1314.84 121.402 1315.07 121.363 1315.29 121.301C1315.5 121.238 1315.69 121.145 1315.85 121.02C1316.02 120.889 1316.15 120.715 1316.25 120.496C1316.36 120.272 1316.39 119.954 1316.34 119.543C1316.3 119.126 1316.19 118.642 1316.03 118.09C1315.97 117.923 1315.9 117.743 1315.83 117.551C1315.75 117.353 1315.68 117.171 1315.61 117.004C1315.52 116.806 1315.44 116.611 1315.35 116.418L1316.74 115.73C1316.74 115.736 1316.76 115.79 1316.81 115.895C1316.86 115.993 1316.92 116.129 1317 116.301C1317.07 116.473 1317.15 116.673 1317.24 116.902C1317.33 117.126 1317.41 117.366 1317.49 117.621C1317.97 119.116 1318.03 120.283 1317.67 121.121C1317.3 121.96 1316.64 122.512 1315.7 122.777C1315.42 122.861 1315.14 122.91 1314.87 122.926C1314.61 122.941 1314.36 122.949 1314.12 122.949H1313.05H1312.98C1312.77 122.949 1312.59 122.876 1312.44 122.73C1312.29 122.585 1312.22 122.402 1312.22 122.184ZM1316.61 125.887L1315.33 127.16L1314.05 125.879L1315.33 124.605L1316.61 125.887ZM1328.57 117.871C1328.71 118.355 1328.85 118.835 1328.98 119.309C1329.03 119.512 1329.09 119.723 1329.15 119.941C1329.2 120.16 1329.25 120.379 1329.3 120.598C1329.35 120.816 1329.4 121.03 1329.43 121.238C1329.47 121.441 1329.5 121.632 1329.52 121.809C1329.53 121.866 1329.53 121.931 1329.54 122.004C1329.54 122.077 1329.54 122.158 1329.54 122.246C1329.54 122.699 1329.48 123.139 1329.34 123.566C1329.21 123.993 1329.03 124.402 1328.79 124.793C1328.55 125.189 1328.27 125.566 1327.94 125.926C1327.62 126.285 1327.27 126.621 1326.88 126.934C1326.5 127.251 1326.1 127.546 1325.67 127.816C1325.25 128.087 1324.82 128.329 1324.38 128.543L1323.7 127.168C1324.25 126.897 1324.78 126.582 1325.29 126.223C1325.81 125.868 1326.27 125.48 1326.67 125.059C1327.08 124.637 1327.4 124.189 1327.65 123.715C1327.89 123.241 1328.01 122.751 1328.01 122.246C1328.01 122.22 1328.01 122.178 1328 122.121C1328 122.059 1327.99 121.999 1327.99 121.941V121.949C1327.97 121.788 1327.95 121.613 1327.91 121.426C1327.87 121.233 1327.83 121.038 1327.79 120.84C1327.74 120.637 1327.69 120.436 1327.64 120.238C1327.59 120.035 1327.53 119.84 1327.48 119.652C1327.36 119.215 1327.22 118.777 1327.08 118.34L1328.57 117.871ZM1335.38 122.949C1334.81 122.949 1334.31 122.882 1333.9 122.746C1333.5 122.611 1333.15 122.402 1332.87 122.121C1332.7 121.949 1332.57 121.764 1332.47 121.566C1332.38 121.368 1332.32 121.173 1332.27 120.98C1332.23 120.788 1332.21 120.605 1332.2 120.434C1332.19 120.257 1332.19 120.105 1332.19 119.98V119.832C1332.19 119.827 1332.19 119.733 1332.2 119.551C1332.21 119.363 1332.21 119.113 1332.21 118.801C1332.21 118.483 1332.22 118.118 1332.22 117.707C1332.22 117.296 1332.21 116.861 1332.21 116.402C1332.21 115.954 1332.2 115.488 1332.19 115.004C1332.18 114.52 1332.17 114.051 1332.15 113.598C1332.12 113.145 1332.1 112.728 1332.06 112.348C1332.02 111.962 1331.98 111.647 1331.93 111.402L1333.47 111.121C1333.51 111.387 1333.55 111.712 1333.59 112.098C1333.63 112.483 1333.66 112.902 1333.68 113.355C1333.7 113.809 1333.72 114.283 1333.73 114.777C1333.74 115.267 1333.75 115.746 1333.75 116.215C1333.75 116.673 1333.75 117.113 1333.75 117.535C1333.75 117.957 1333.75 118.332 1333.75 118.66C1333.75 118.988 1333.75 119.259 1333.75 119.473C1333.75 119.686 1333.75 119.814 1333.75 119.855V119.996C1333.74 120.225 1333.75 120.428 1333.77 120.605C1333.79 120.777 1333.86 120.921 1333.98 121.035C1334.22 121.28 1334.66 121.405 1335.31 121.41H1335.38C1335.48 121.41 1335.58 121.431 1335.68 121.473C1335.77 121.514 1335.85 121.572 1335.92 121.645C1335.99 121.712 1336.05 121.793 1336.09 121.887C1336.13 121.98 1336.15 122.079 1336.15 122.184C1336.15 122.402 1336.08 122.585 1335.93 122.73C1335.78 122.876 1335.59 122.949 1335.38 122.949ZM1334.52 122.191C1334.52 121.973 1334.6 121.79 1334.75 121.645C1334.91 121.493 1335.11 121.418 1335.36 121.418H1336.18C1336.5 121.418 1336.82 121.415 1337.16 121.41C1337.5 121.4 1337.82 121.368 1338.13 121.316C1338.44 121.259 1338.72 121.173 1338.97 121.059C1339.23 120.939 1339.43 120.77 1339.58 120.551C1339.75 120.29 1339.85 120.007 1339.87 119.699C1339.9 119.392 1339.87 119.059 1339.78 118.699C1339.72 118.486 1339.58 118.215 1339.35 117.887C1339.12 117.553 1338.85 117.199 1338.51 116.824C1338.18 116.444 1337.81 116.056 1337.4 115.66C1336.98 115.264 1336.56 114.895 1336.14 114.551L1336.32 112.949L1342.74 110.199L1343.34 111.621L1337.75 113.973C1338 114.191 1338.28 114.436 1338.58 114.707C1338.88 114.978 1339.18 115.277 1339.48 115.605C1339.88 116.043 1340.2 116.462 1340.46 116.863C1340.71 117.259 1340.91 117.637 1341.05 117.996C1341.19 118.355 1341.29 118.697 1341.33 119.02C1341.38 119.337 1341.39 119.637 1341.36 119.918C1341.34 120.199 1341.28 120.46 1341.2 120.699C1341.12 120.939 1341.03 121.158 1340.92 121.355C1340.46 122.178 1339.67 122.691 1338.57 122.895C1338.37 122.931 1338.14 122.949 1337.89 122.949H1335.36C1335.11 122.949 1334.91 122.876 1334.75 122.73C1334.6 122.585 1334.52 122.405 1334.52 122.191ZM1352.85 117.465C1352.72 117.517 1352.58 117.582 1352.4 117.66C1352.23 117.733 1352.05 117.819 1351.86 117.918C1351.68 118.012 1351.5 118.118 1351.32 118.238C1351.14 118.353 1350.98 118.478 1350.83 118.613C1350.69 118.743 1350.58 118.887 1350.49 119.043C1350.4 119.194 1350.36 119.353 1350.36 119.52C1350.36 119.691 1350.41 119.832 1350.51 119.941C1350.62 120.046 1350.76 120.129 1350.93 120.191C1351.1 120.249 1351.29 120.288 1351.5 120.309C1351.72 120.329 1351.93 120.34 1352.15 120.34C1352.36 120.335 1352.57 120.322 1352.76 120.301C1352.96 120.28 1353.13 120.257 1353.26 120.23C1353.2 119.928 1353.13 119.559 1353.07 119.121C1353 118.684 1352.93 118.132 1352.85 117.465ZM1352.08 121.855C1350.74 121.855 1349.8 121.53 1349.28 120.879C1349.13 120.702 1349.03 120.514 1348.97 120.316C1348.91 120.113 1348.87 119.915 1348.86 119.723C1348.86 119.53 1348.87 119.35 1348.9 119.184C1348.93 119.017 1348.97 118.879 1349.02 118.77C1349.16 118.478 1349.33 118.21 1349.52 117.965C1349.72 117.72 1349.93 117.501 1350.15 117.309C1350.37 117.111 1350.6 116.936 1350.83 116.785C1351.07 116.629 1351.3 116.493 1351.52 116.379C1351.74 116.264 1351.96 116.165 1352.15 116.082C1352.35 115.999 1352.52 115.931 1352.67 115.879C1352.63 115.483 1352.6 115.194 1352.58 115.012C1352.56 114.824 1352.55 114.728 1352.55 114.723L1354.08 114.402V114.395C1354.09 114.441 1354.1 114.538 1354.11 114.684C1354.13 114.829 1354.15 115.004 1354.17 115.207C1354.19 115.405 1354.21 115.618 1354.23 115.848C1354.26 116.072 1354.28 116.283 1354.3 116.48C1354.32 116.678 1354.34 116.85 1354.36 116.996C1354.37 117.142 1354.38 117.233 1354.39 117.27C1354.47 117.941 1354.54 118.491 1354.61 118.918C1354.67 119.345 1354.73 119.686 1354.79 119.941C1354.84 120.191 1354.88 120.371 1354.91 120.48C1354.95 120.59 1354.97 120.66 1354.99 120.691C1355.05 120.832 1355.12 120.949 1355.2 121.043C1355.28 121.137 1355.38 121.212 1355.49 121.27C1355.6 121.322 1355.72 121.361 1355.86 121.387C1356 121.408 1356.17 121.418 1356.35 121.418C1356.56 121.418 1356.74 121.491 1356.9 121.637C1357.05 121.783 1357.12 121.965 1357.12 122.184C1357.12 122.288 1357.1 122.387 1357.06 122.48C1357.02 122.574 1356.96 122.658 1356.89 122.73C1356.82 122.798 1356.74 122.853 1356.65 122.895C1356.55 122.931 1356.45 122.949 1356.35 122.949C1356.15 122.949 1355.91 122.934 1355.64 122.902C1355.37 122.866 1355.1 122.785 1354.83 122.66C1354.41 122.462 1354.06 122.145 1353.79 121.707C1353.47 121.759 1353.17 121.798 1352.89 121.824C1352.61 121.845 1352.34 121.855 1352.08 121.855ZM1360.52 117.16C1360.38 117.16 1360.23 117.212 1360.06 117.316C1359.9 117.415 1359.75 117.559 1359.61 117.746C1359.47 117.928 1359.35 118.15 1359.25 118.41C1359.17 118.671 1359.12 118.962 1359.12 119.285C1359.12 119.53 1359.24 119.772 1359.47 120.012C1359.7 120.246 1360.03 120.462 1360.47 120.66L1360.59 120.715C1360.9 120.579 1361.13 120.397 1361.29 120.168C1361.46 119.934 1361.56 119.686 1361.61 119.426C1361.67 119.16 1361.67 118.895 1361.63 118.629C1361.59 118.358 1361.51 118.116 1361.4 117.902C1361.3 117.684 1361.17 117.507 1361.01 117.371C1360.86 117.23 1360.69 117.16 1360.52 117.16ZM1355.58 122.184C1355.58 122.074 1355.6 121.973 1355.64 121.879C1355.67 121.785 1355.73 121.704 1355.8 121.637C1355.87 121.569 1355.95 121.517 1356.04 121.48C1356.13 121.439 1356.23 121.418 1356.34 121.418C1356.52 121.418 1356.72 121.415 1356.93 121.41C1357.14 121.405 1357.35 121.397 1357.55 121.387C1357.75 121.376 1357.95 121.363 1358.13 121.348C1358.32 121.332 1358.48 121.316 1358.61 121.301C1357.93 120.707 1357.59 120.035 1357.59 119.285C1357.59 118.801 1357.66 118.34 1357.81 117.902C1357.96 117.465 1358.18 117.069 1358.46 116.715C1358.74 116.361 1359.06 116.087 1359.42 115.895C1359.78 115.697 1360.16 115.605 1360.54 115.621C1361 115.642 1361.41 115.751 1361.75 115.949C1362.1 116.147 1362.39 116.402 1362.62 116.715C1362.86 117.027 1363.03 117.382 1363.14 117.777C1363.25 118.168 1363.29 118.569 1363.27 118.98C1363.25 119.387 1363.17 119.788 1363.02 120.184C1362.87 120.574 1362.66 120.923 1362.38 121.23C1362.54 121.262 1362.71 121.29 1362.9 121.316C1363.08 121.337 1363.28 121.355 1363.47 121.371C1363.67 121.387 1363.87 121.4 1364.07 121.41C1364.27 121.415 1364.45 121.418 1364.62 121.418C1364.84 121.418 1365.02 121.491 1365.17 121.637C1365.32 121.783 1365.4 121.965 1365.4 122.184C1365.4 122.293 1365.37 122.395 1365.33 122.488C1365.3 122.577 1365.24 122.658 1365.17 122.73C1365.1 122.798 1365.02 122.853 1364.93 122.895C1364.83 122.931 1364.73 122.949 1364.62 122.949H1364.55C1364.39 122.949 1364.22 122.947 1364.03 122.941C1363.84 122.936 1363.65 122.928 1363.46 122.918C1363.27 122.902 1363.08 122.887 1362.9 122.871C1362.71 122.855 1362.55 122.835 1362.4 122.809C1362.08 122.757 1361.78 122.697 1361.49 122.629C1361.2 122.561 1360.92 122.483 1360.65 122.395C1360.4 122.488 1360.12 122.569 1359.79 122.637C1359.47 122.704 1359.12 122.762 1358.75 122.809C1358.38 122.855 1358 122.892 1357.6 122.918C1357.2 122.939 1356.8 122.949 1356.4 122.949H1356.34C1356.12 122.949 1355.94 122.876 1355.79 122.73C1355.65 122.585 1355.58 122.402 1355.58 122.184ZM1360.15 112.566L1358.88 113.832L1357.6 112.559L1358.86 111.285L1360.15 112.566ZM1363.35 112.574L1362.08 113.848L1360.8 112.566L1362.07 111.301L1363.35 112.574ZM1363.83 122.184C1363.83 121.965 1363.9 121.783 1364.05 121.637C1364.2 121.491 1364.38 121.418 1364.59 121.418H1365.4C1365.67 121.428 1365.94 121.428 1366.19 121.418C1366.45 121.402 1366.68 121.363 1366.9 121.301C1367.11 121.238 1367.3 121.145 1367.46 121.02C1367.62 120.889 1367.76 120.715 1367.86 120.496C1367.97 120.272 1368 119.954 1367.95 119.543C1367.91 119.126 1367.8 118.642 1367.64 118.09C1367.58 117.923 1367.51 117.743 1367.43 117.551C1367.36 117.353 1367.29 117.171 1367.22 117.004C1367.13 116.806 1367.05 116.611 1366.96 116.418L1368.35 115.73C1368.35 115.736 1368.37 115.79 1368.42 115.895C1368.47 115.993 1368.53 116.129 1368.61 116.301C1368.68 116.473 1368.76 116.673 1368.85 116.902C1368.94 117.126 1369.02 117.366 1369.1 117.621C1369.58 119.116 1369.64 120.283 1369.28 121.121C1368.91 121.96 1368.25 122.512 1367.31 122.777C1367.03 122.861 1366.75 122.91 1366.48 122.926C1366.22 122.941 1365.97 122.949 1365.73 122.949H1364.66H1364.59C1364.38 122.949 1364.2 122.876 1364.05 122.73C1363.9 122.585 1363.83 122.402 1363.83 122.184ZM1368.22 125.887L1366.94 127.16L1365.66 125.879L1366.93 124.605L1368.22 125.887ZM1375.18 122.949C1374.6 122.949 1374.11 122.882 1373.7 122.746C1373.29 122.611 1372.95 122.402 1372.67 122.121C1372.5 121.949 1372.36 121.764 1372.27 121.566C1372.18 121.368 1372.11 121.173 1372.07 120.98C1372.03 120.788 1372 120.605 1372 120.434C1371.99 120.257 1371.99 120.105 1371.99 119.98V119.832C1371.99 119.827 1371.99 119.733 1372 119.551C1372 119.363 1372 119.113 1372 118.801C1372.01 118.483 1372.01 118.118 1372.01 117.707C1372.01 117.296 1372.01 116.861 1372 116.402C1372 115.954 1372 115.488 1371.99 115.004C1371.98 114.52 1371.96 114.051 1371.94 113.598C1371.92 113.145 1371.89 112.728 1371.86 112.348C1371.82 111.962 1371.78 111.647 1371.73 111.402L1373.26 111.121C1373.31 111.387 1373.35 111.712 1373.39 112.098C1373.42 112.483 1373.45 112.902 1373.47 113.355C1373.5 113.809 1373.52 114.283 1373.53 114.777C1373.54 115.267 1373.54 115.746 1373.54 116.215C1373.55 116.673 1373.55 117.113 1373.55 117.535C1373.55 117.957 1373.55 118.332 1373.55 118.66C1373.55 118.988 1373.55 119.259 1373.54 119.473C1373.54 119.686 1373.54 119.814 1373.54 119.855V119.996C1373.54 120.225 1373.55 120.428 1373.57 120.605C1373.59 120.777 1373.66 120.921 1373.78 121.035C1374.01 121.28 1374.46 121.405 1375.11 121.41H1375.18C1375.28 121.41 1375.38 121.431 1375.47 121.473C1375.57 121.514 1375.65 121.572 1375.72 121.645C1375.79 121.712 1375.85 121.793 1375.89 121.887C1375.93 121.98 1375.95 122.079 1375.95 122.184C1375.95 122.402 1375.87 122.585 1375.72 122.73C1375.57 122.876 1375.39 122.949 1375.18 122.949ZM1374.44 122.191C1374.44 122.092 1374.46 121.999 1374.5 121.91C1374.53 121.816 1374.59 121.736 1374.65 121.668C1374.72 121.595 1374.79 121.538 1374.88 121.496C1374.97 121.454 1375.06 121.428 1375.16 121.418C1375.47 121.418 1375.74 121.358 1375.99 121.238C1376.24 121.118 1376.46 120.96 1376.65 120.762C1376.84 120.559 1377.01 120.327 1377.15 120.066C1377.3 119.806 1377.42 119.535 1377.53 119.254C1377.63 118.967 1377.72 118.681 1377.79 118.395C1377.86 118.103 1377.92 117.829 1377.97 117.574L1379.52 117.902C1379.48 118.027 1379.43 118.189 1379.36 118.387C1379.31 118.585 1379.25 118.798 1379.19 119.027C1379.13 119.251 1379.09 119.483 1379.04 119.723C1379 119.957 1378.98 120.176 1378.98 120.379C1378.98 120.52 1378.99 120.658 1379.02 120.793C1379.05 120.923 1379.09 121.04 1379.15 121.145C1379.22 121.249 1379.3 121.332 1379.41 121.395C1379.52 121.457 1379.66 121.488 1379.83 121.488C1380.09 121.488 1380.33 121.415 1380.54 121.27C1380.75 121.124 1380.94 120.934 1381.1 120.699C1381.27 120.465 1381.41 120.199 1381.53 119.902C1381.65 119.605 1381.75 119.303 1381.83 118.996C1381.92 118.689 1381.99 118.392 1382.05 118.105C1382.11 117.814 1382.15 117.561 1382.18 117.348L1383.68 117.621C1383.68 117.621 1383.67 117.707 1383.64 117.879C1383.61 118.046 1383.58 118.251 1383.54 118.496C1383.5 118.736 1383.47 118.993 1383.43 119.27C1383.4 119.54 1383.39 119.783 1383.39 119.996C1383.39 120.189 1383.4 120.374 1383.43 120.551C1383.46 120.723 1383.5 120.876 1383.57 121.012C1383.63 121.142 1383.72 121.251 1383.83 121.34C1383.93 121.423 1384.07 121.473 1384.22 121.488C1384.46 121.52 1384.66 121.517 1384.82 121.48C1384.98 121.444 1385.11 121.397 1385.2 121.34C1385.29 121.277 1385.36 121.212 1385.4 121.145C1385.45 121.077 1385.48 121.027 1385.5 120.996H1385.49C1385.56 120.882 1385.61 120.751 1385.64 120.605C1385.67 120.46 1385.68 120.303 1385.68 120.137C1385.68 119.84 1385.64 119.52 1385.56 119.176C1385.48 118.832 1385.38 118.496 1385.27 118.168C1385.16 117.835 1385.04 117.527 1384.92 117.246C1384.8 116.96 1384.7 116.733 1384.61 116.566L1385.98 115.848C1386.01 115.9 1386.06 116.001 1386.13 116.152C1386.2 116.298 1386.29 116.48 1386.38 116.699C1386.47 116.913 1386.57 117.155 1386.67 117.426C1386.77 117.697 1386.87 117.983 1386.95 118.285C1387.03 118.582 1387.1 118.887 1387.15 119.199C1387.21 119.512 1387.24 119.816 1387.24 120.113C1387.24 120.561 1387.18 120.967 1387.05 121.332C1386.93 121.691 1386.74 121.999 1386.49 122.254C1386.24 122.509 1385.92 122.707 1385.54 122.848C1385.17 122.983 1384.73 123.048 1384.22 123.043C1384.02 123.043 1383.82 123.012 1383.62 122.949C1383.42 122.887 1383.23 122.803 1383.05 122.699C1382.87 122.59 1382.7 122.465 1382.54 122.324C1382.39 122.178 1382.25 122.022 1382.15 121.855C1381.83 122.22 1381.48 122.509 1381.08 122.723C1380.69 122.936 1380.27 123.043 1379.83 123.043C1379.63 123.043 1379.43 123.017 1379.22 122.965C1379.02 122.918 1378.83 122.845 1378.64 122.746C1378.45 122.647 1378.28 122.525 1378.12 122.379C1377.97 122.233 1377.85 122.064 1377.77 121.871C1377.46 122.199 1377.1 122.46 1376.71 122.652C1376.31 122.845 1375.84 122.947 1375.29 122.957H1375.16C1375.06 122.952 1374.97 122.928 1374.88 122.887C1374.79 122.845 1374.72 122.79 1374.65 122.723C1374.59 122.655 1374.53 122.577 1374.5 122.488C1374.46 122.395 1374.44 122.296 1374.44 122.191Z" fill="black"/>
<path d="M1308.93 94.2759C1307.66 94.2759 1306.49 93.9699 1305.43 93.3579C1304.38 92.7459 1303.55 91.9072 1302.91 90.8419C1302.3 89.7992 1301.99 88.6432 1301.99 87.3739V79.7919L1305.67 78.8739V87.3739C1305.67 88.2806 1305.98 89.0399 1306.62 89.6519C1307.25 90.2866 1308.02 90.6039 1308.93 90.6039H1312.3C1313.2 90.6039 1313.97 90.2866 1314.61 89.6519C1315.24 89.0399 1315.56 88.2806 1315.56 87.3739V64.3219L1319.27 63.4039V87.3739C1319.27 88.6432 1318.95 89.7992 1318.31 90.8419C1317.7 91.9072 1316.86 92.7459 1315.8 93.3579C1314.73 93.9699 1313.56 94.2759 1312.3 94.2759H1308.93ZM1323.31 64.4239L1326.98 63.3699V81.8319H1330.08L1330.72 83.7019L1330.08 85.5039H1323.31V64.4239ZM1329.99 85.5039L1329.42 83.6679L1330.03 81.8319H1330.06C1330.95 81.8319 1331.71 81.5146 1332.34 80.8799C1333 80.2452 1333.33 79.4746 1333.33 78.5679V73.3319H1337V79.2139C1337 79.9392 1337.25 80.5626 1337.75 81.0839C1338.27 81.5826 1338.88 81.8319 1339.58 81.8319C1340.31 81.8319 1340.92 81.5826 1341.42 81.0839C1341.94 80.5626 1342.2 79.9392 1342.2 79.2139V73.3319H1345.87V79.2139C1345.87 79.9166 1346.13 80.5286 1346.65 81.0499C1347.18 81.5712 1347.79 81.8319 1348.49 81.8319C1349.22 81.8319 1349.83 81.5712 1350.33 81.0499C1350.85 80.5286 1351.11 79.9166 1351.11 79.2139V73.0939L1354.75 72.1759V79.2139C1354.75 80.3472 1354.46 81.4012 1353.9 82.3759C1353.35 83.3279 1352.59 84.0872 1351.62 84.6539C1350.67 85.2206 1349.62 85.5039 1348.49 85.5039C1347.7 85.5039 1346.89 85.3226 1346.08 84.9599C1345.28 84.5746 1344.6 84.0986 1344.04 83.5319C1343.47 84.1439 1342.8 84.6312 1342.03 84.9939C1341.26 85.3339 1340.44 85.5039 1339.58 85.5039C1338.77 85.5039 1337.93 85.2886 1337.07 84.8579C1336.23 84.4272 1335.54 83.9172 1334.99 83.3279C1334.36 84.0079 1333.61 84.5406 1332.75 84.9259C1331.91 85.3112 1331.01 85.5039 1330.06 85.5039H1329.99ZM1369.27 85.5039C1368.09 85.5039 1366.98 85.2206 1365.94 84.6539C1364.9 84.0646 1364.06 83.2486 1363.42 82.2059C1362.81 81.1406 1362.51 79.9279 1362.51 78.5679V73.3319C1362.51 72.0852 1362.81 70.9292 1363.42 69.8639C1364.06 68.7759 1364.91 67.9146 1365.97 67.2799C1367.04 66.6452 1368.19 66.3279 1369.44 66.3279H1369.82L1372.81 61.8059L1384.5 70.8499V79.1459C1384.5 80.3019 1384.22 81.3672 1383.65 82.3419C1383.09 83.3166 1382.32 84.0872 1381.34 84.6539C1380.39 85.2206 1379.34 85.5039 1378.18 85.5039C1377.41 85.5039 1376.62 85.3112 1375.8 84.9259C1375.01 84.5406 1374.33 84.0759 1373.76 83.5319C1373.19 84.1439 1372.51 84.6312 1371.72 84.9939C1370.95 85.3339 1370.13 85.5039 1369.27 85.5039ZM1366.14 78.5339C1366.14 79.4406 1366.43 80.2112 1366.99 80.8459C1367.58 81.4579 1368.34 81.7639 1369.27 81.7639C1370.02 81.7639 1370.64 81.5146 1371.14 81.0159C1371.66 80.4946 1371.92 79.8712 1371.92 79.1459V76.9699H1375.63V79.1799C1375.63 79.8826 1375.88 80.4946 1376.38 81.0159C1376.88 81.5146 1377.48 81.7639 1378.18 81.7639C1378.9 81.7639 1379.53 81.5146 1380.05 81.0159C1380.57 80.4946 1380.83 79.8712 1380.83 79.1459V72.5499L1373.69 66.8039L1371.55 69.9659H1369.51C1368.6 69.9659 1367.81 70.3059 1367.13 70.9859C1366.47 71.6432 1366.14 72.4252 1366.14 73.3319V78.5339ZM1393.72 79.4519H1388.45V76.3239H1393.72V71.0539H1396.85V76.3239H1402.09V79.4519H1396.85V84.6879H1393.72V79.4519Z" fill="black"/>
<path d="M113 59.5H169C173.142 59.5 176.5 62.8579 176.5 67V115C176.5 119.142 173.142 122.5 169 122.5H113C108.858 122.5 105.5 119.142 105.5 115V67C105.5 62.8579 108.858 59.5 113 59.5Z" stroke="#5791D4"/>
<path d="M141 95.8006C140.3 95.8006 139.6 95.5306 139.07 95.0006L132.55 88.4806C132.26 88.1906 132.26 87.7106 132.55 87.4206C132.84 87.1306 133.32 87.1306 133.61 87.4206L140.13 93.9406C140.61 94.4206 141.39 94.4206 141.87 93.9406L148.39 87.4206C148.68 87.1306 149.16 87.1306 149.45 87.4206C149.74 87.7106 149.74 88.1906 149.45 88.4806L142.93 95.0006C142.4 95.5306 141.7 95.8006 141 95.8006Z" fill="#2B6FBD"/>
<defs>
<linearGradient id="paint0_linear_823_307" x1="-162.371" y1="-60.5478" x2="1795.85" y2="637.748" gradientUnits="userSpaceOnUse">
<stop stop-color="#F9E9FF"/>
<stop offset="1" stop-color="#B0D0FF"/>
</linearGradient>
</defs>
</svg>
