<svg width="90" height="16" viewBox="0 0 90 16" fill="none" xmlns="http://www.w3.org/2000/svg">
<path opacity="0.9" d="M22.5624 3.84H19.2504L17.3064 15H12.7464L14.6904 3.84H11.4024L12.0984 0H23.2584L22.5624 3.84ZM12.0024 14.928L1.82644 13.848H12.1944L12.0024 14.928ZM12.8184 10.296L2.64244 9.216H13.0104L12.8184 10.296ZM13.2264 7.992L3.05044 6.912H13.4184L13.2264 7.992ZM13.6344 5.688L3.45844 4.608H13.8264L13.6344 5.688ZM12.4104 12.6L2.23444 11.52H12.6024L12.4104 12.6ZM10.7544 3.384L0.578437 2.304H10.9224L10.7544 3.384ZM11.1384 1.08L0.986437 0H11.3304L11.1384 1.08ZM28.875 15.1758C27.2812 15.1758 26.0469 14.7148 25.1719 13.793C24.2969 12.8633 23.8594 11.5586 23.8594 9.87891V7.89844C23.8594 6.23438 24.2969 4.94531 25.1719 4.03125C26.0469 3.11719 27.2812 2.66016 28.875 2.66016C30.4688 2.66016 31.7031 3.11719 32.5781 4.03125C33.4531 4.94531 33.8906 6.23438 33.8906 7.89844V9.91406C33.8906 11.5859 33.4531 12.8828 32.5781 13.8047C31.7031 14.7188 30.4688 15.1758 28.875 15.1758ZM28.875 12.9023C29.7109 12.9023 30.3555 12.6406 30.8086 12.1172C31.2695 11.5938 31.5 10.8594 31.5 9.91406V7.89844C31.5 6.95312 31.2695 6.22266 30.8086 5.70703C30.3555 5.19141 29.7109 4.93359 28.875 4.93359C28.0469 4.93359 27.4023 5.19141 26.9414 5.70703C26.4805 6.22266 26.25 6.95312 26.25 7.89844V9.91406C26.25 10.8594 26.4805 11.5938 26.9414 12.1172C27.4023 12.6406 28.0469 12.9023 28.875 12.9023ZM37.2891 15V2.83594H39.6797V15H37.2891ZM44.6719 15V7.62891C44.6719 6.76953 44.4492 6.10547 44.0039 5.63672C43.5664 5.16797 42.9414 4.93359 42.1289 4.93359C41.3477 4.93359 40.7422 5.14062 40.3125 5.55469C39.8906 5.96875 39.6797 6.55078 39.6797 7.30078L39.4336 4.95703C39.8086 4.22266 40.2969 3.65625 40.8984 3.25781C41.5078 2.85938 42.1797 2.66016 42.9141 2.66016C44.2344 2.66016 45.2539 3.09375 45.9727 3.96094C46.6992 4.82031 47.0625 6.03906 47.0625 7.61719V15H44.6719ZM50.6953 15V2.83594H53.0859V15H50.6953ZM57.3867 5.71875C57.1758 5.46094 56.9102 5.26562 56.5898 5.13281C56.2695 5 55.8984 4.93359 55.4766 4.93359C54.7188 4.93359 54.1289 5.14453 53.707 5.56641C53.293 5.98047 53.0859 6.55859 53.0859 7.30078L52.8398 4.95703C53.207 4.23828 53.6875 3.67578 54.2812 3.26953C54.8828 2.86328 55.543 2.66016 56.2617 2.66016C56.8164 2.66016 57.3164 2.74219 57.7617 2.90625C58.2148 3.0625 58.6094 3.29688 58.9453 3.60938L57.3867 5.71875ZM65.3672 15.1758C63.7734 15.1758 62.5391 14.7148 61.6641 13.793C60.7891 12.8633 60.3516 11.5586 60.3516 9.87891V7.89844C60.3516 6.23438 60.7891 4.94531 61.6641 4.03125C62.5391 3.11719 63.7734 2.66016 65.3672 2.66016C66.9609 2.66016 68.1953 3.11719 69.0703 4.03125C69.9453 4.94531 70.3828 6.23438 70.3828 7.89844V9.91406C70.3828 11.5859 69.9453 12.8828 69.0703 13.8047C68.1953 14.7188 66.9609 15.1758 65.3672 15.1758ZM65.3672 12.9023C66.2031 12.9023 66.8477 12.6406 67.3008 12.1172C67.7617 11.5938 67.9922 10.8594 67.9922 9.91406V7.89844C67.9922 6.95312 67.7617 6.22266 67.3008 5.70703C66.8477 5.19141 66.2031 4.93359 65.3672 4.93359C64.5391 4.93359 63.8945 5.19141 63.4336 5.70703C62.9727 6.22266 62.7422 6.95312 62.7422 7.89844V9.91406C62.7422 10.8594 62.9727 11.5938 63.4336 12.1172C63.8945 12.6406 64.5391 12.9023 65.3672 12.9023ZM76.0078 15L72.2578 2.83594H74.7539L76.9102 11.5195L79.9453 2.83594H81.6094L84.6445 11.5195L86.8008 2.83594H89.2969L85.5469 15H83.7422L80.7773 6.59766L77.8125 15H76.0078Z" fill="#1D2939"/>
</svg>
